# Blender 4.4.3
# www.blender.org
o leg
v -0.089334 0.275659 0.051271
v -0.089336 0.936584 0.073363
v -0.132272 0.275659 0.020071
v -0.166590 0.936584 0.017228
v -0.115868 0.275659 -0.030407
v -0.137075 0.936584 -0.073591
v -0.062791 0.275659 -0.030404
v -0.041581 0.936584 -0.073586
v -0.046393 0.275659 0.020076
v -0.012076 0.936584 0.017237
v -0.089335 0.606121 0.048326
v -0.149431 0.606122 0.004658
v -0.126472 0.606122 -0.058359
v -0.052186 0.606122 -0.058355
v -0.029234 0.606122 0.004665
v -0.089335 0.632682 0.050338
v -0.150810 0.632683 0.005669
v -0.127324 0.632683 -0.059583
v -0.051334 0.632683 -0.059579
v -0.027855 0.632683 0.005675
v -0.147822 0.575141 0.006103
v -0.125478 0.575141 -0.055738
v -0.053180 0.575141 -0.055734
v -0.030843 0.575141 0.006110
v -0.089335 0.575141 0.048602
v -0.089336 0.936584 0.073363
v -0.166590 0.936584 0.017228
v -0.137075 0.936584 -0.073591
v -0.041581 0.936584 -0.073586
v -0.012076 0.936584 0.017237
v 0.089334 0.275659 0.051271
v 0.089336 0.936584 0.073363
v 0.132272 0.275659 0.020071
v 0.166590 0.936584 0.017228
v 0.115868 0.275659 -0.030406
v 0.137075 0.936584 -0.073591
v 0.062791 0.275659 -0.030404
v 0.041581 0.936584 -0.073586
v 0.046393 0.275659 0.020076
v 0.012076 0.936584 0.017237
v 0.089335 0.606121 0.048326
v 0.149431 0.606122 0.004658
v 0.126472 0.606122 -0.058359
v 0.052186 0.606122 -0.058355
v 0.029234 0.606122 0.004665
v 0.089335 0.632682 0.050338
v 0.150810 0.632683 0.005669
v 0.127324 0.632683 -0.059583
v 0.051334 0.632683 -0.059579
v 0.027855 0.632683 0.005675
v 0.147822 0.575141 0.006103
v 0.125478 0.575141 -0.055738
v 0.053180 0.575141 -0.055734
v 0.030843 0.575141 0.006110
v 0.089335 0.575141 0.048602
v 0.089336 0.936584 0.073363
v 0.166590 0.936584 0.017228
v 0.137075 0.936584 -0.073591
v 0.041581 0.936584 -0.073586
v 0.012076 0.936584 0.017237
vn -0.0000 1.0000 -0.0000
vn 0.9830 0.0618 -0.1730
vn -0.0000 0.2451 0.9695
vn 0.5877 0.0072 0.8090
vn 0.9383 -0.0617 -0.3403
vn 0.0001 -0.0843 -0.9964
vn -0.9382 -0.0617 -0.3404
vn -0.5878 0.0072 0.8090
vn 0.5866 -0.0612 0.8075
vn 0.9395 -0.0408 -0.3401
vn 0.0001 -0.0460 -0.9989
vn -0.9395 -0.0408 -0.3402
vn -0.5867 -0.0612 0.8075
vn -0.9436 -0.0610 -0.3255
vn 0.9436 -0.0610 -0.3254
vn 0.9461 -0.0410 -0.3212
vn -0.9461 -0.0410 -0.3213
vn -0.0000 0.7475 -0.6642
vn -0.0000 0.3336 0.9427
vn -0.5877 0.0072 0.8090
vn -0.9383 -0.0617 -0.3403
vn -0.0001 -0.0843 -0.9964
vn 0.9382 -0.0617 -0.3404
vn 0.5878 0.0072 0.8090
vn -0.5866 -0.0612 0.8075
vn -0.9395 -0.0408 -0.3401
vn -0.0001 -0.0460 -0.9989
vn 0.9395 -0.0408 -0.3402
vn 0.5867 -0.0612 0.8075
vn 0.9436 -0.0610 -0.3255
vn -0.9436 -0.0610 -0.3254
vn -0.9461 -0.0410 -0.3212
vn 0.9461 -0.0410 -0.3213
vt 0.984557 0.866266
vt 0.980582 0.865077
vt 0.981071 0.870936
vt 0.989170 0.872367
vt 0.989170 0.872367
vt 0.966687 0.867572
vt 0.966687 0.867572
vt 0.959039 0.866195
vt 0.959039 0.866195
vt 0.958551 0.860336
vt 0.949527 0.858959
vt 0.958655 0.784986
vt 0.958551 0.799913
vt 0.949527 0.798536
vt 0.949631 0.783609
vt 0.965326 0.784410
vt 0.965222 0.799337
vt 0.957574 0.797960
vt 0.957679 0.783033
vt 0.984649 0.800803
vt 0.984218 0.816021
vt 0.965222 0.808126
vt 0.965326 0.793199
vt 0.983925 0.782857
vt 0.984256 0.797275
vt 0.984218 0.807232
vt 0.984649 0.792014
vt 0.984661 0.790916
vt 0.984557 0.805844
vt 0.985233 0.799228
vt 0.984901 0.784810
vt 0.958551 0.804770
vt 0.949527 0.803393
vt 0.965222 0.804193
vt 0.957574 0.802817
vt 0.984218 0.812115
vt 0.984498 0.816722
vt 0.965222 0.809076
vt 0.965222 0.804220
vt 0.983883 0.802568
vt 0.984498 0.811839
vt 0.984557 0.810700
vt 0.984859 0.804521
vt 0.985669 0.646621
vt 0.981695 0.645431
vt 0.980718 0.643478
vt 0.988818 0.644909
vt 0.988818 0.653698
vt 0.966335 0.648903
vt 0.966335 0.640114
vt 0.958687 0.638737
vt 0.959664 0.640690
vt 0.950639 0.639314
vt 0.965222 0.859760
vt 0.957574 0.858383
vt 0.987706 0.864555
vt 0.979606 0.863124
s 0
f 26/1/1 2/1/1 4/2/1 27/2/1
f 27/3/1 4/3/1 6/4/1 28/5/1
f 28/5/1 6/4/1 8/6/1 29/7/1
f 29/7/2 8/6/2 10/8/2 30/9/2
f 30/10/3 10/10/3 2/11/3 26/11/3
f 24/12/4 15/13/4 11/14/4 25/15/4
f 23/16/5 14/17/5 15/18/5 24/19/5
f 22/20/6 13/21/6 14/22/6 23/23/6
f 21/24/7 12/25/7 13/26/7 22/27/7
f 25/28/8 11/29/8 12/30/8 21/31/8
f 15/13/9 20/32/9 16/33/9 11/14/9
f 14/17/10 19/34/10 20/35/10 15/18/10
f 13/36/11 18/37/11 19/38/11 14/39/11
f 12/25/12 17/40/12 18/41/12 13/26/12
f 11/29/13 16/42/13 17/43/13 12/30/13
f 1/44/8 25/28/8 21/31/8 3/45/8
f 3/46/14 21/24/14 22/27/14 5/47/14
f 5/48/6 22/20/6 23/23/6 7/49/6
f 7/50/15 23/16/15 24/19/15 9/51/15
f 9/52/4 24/12/4 25/15/4 1/53/4
f 20/32/9 30/10/9 26/11/9 16/33/9
f 19/34/16 29/54/16 30/55/16 20/35/16
f 18/41/11 28/56/11 29/54/11 19/34/11
f 17/40/17 27/57/17 28/56/17 18/41/17
f 16/42/13 26/1/13 27/2/13 17/43/13
f 56/1/1 57/2/1 34/2/1 32/1/1
f 57/3/1 58/5/1 36/4/1 34/3/1
f 58/5/1 59/7/1 38/6/1 36/4/1
f 59/7/18 60/9/18 40/8/18 38/6/18
f 60/10/19 56/11/19 32/11/19 40/10/19
f 54/12/20 55/15/20 41/14/20 45/13/20
f 53/16/21 54/19/21 45/18/21 44/17/21
f 52/20/22 53/23/22 44/22/22 43/21/22
f 51/24/23 52/27/23 43/26/23 42/25/23
f 55/28/24 51/31/24 42/30/24 41/29/24
f 45/13/25 41/14/25 46/33/25 50/32/25
f 44/17/26 45/18/26 50/35/26 49/34/26
f 43/36/27 44/39/27 49/38/27 48/37/27
f 42/25/28 43/26/28 48/41/28 47/40/28
f 41/29/29 42/30/29 47/43/29 46/42/29
f 31/44/24 33/45/24 51/31/24 55/28/24
f 33/46/30 35/47/30 52/27/30 51/24/30
f 35/48/22 37/49/22 53/23/22 52/20/22
f 37/50/31 39/51/31 54/19/31 53/16/31
f 39/52/20 31/53/20 55/15/20 54/12/20
f 50/32/25 46/33/25 56/11/25 60/10/25
f 49/34/32 50/35/32 60/55/32 59/54/32
f 48/41/27 49/34/27 59/54/27 58/56/27
f 47/40/33 48/41/33 58/56/33 57/57/33
f 46/42/29 47/43/29 57/2/29 56/1/29
o skirt
v -0.238793 0.784637 0.206013
v -0.105044 1.195457 0.075044
v -0.238793 0.772705 -0.172868
v -0.105044 1.195457 -0.095396
v -0.000000 0.772705 -0.193661
v 0.000000 1.195457 -0.095396
v -0.000000 0.784637 0.262014
v -0.000000 1.195457 0.075044
v -0.174390 1.052350 0.127889
v -0.174390 1.052351 -0.125301
v -0.000000 1.052351 0.127889
v 0.000000 1.052351 -0.125301
v -0.107148 1.149069 0.075045
v -0.107148 1.149069 -0.095396
v -0.000000 1.149069 0.075044
v 0.000000 1.149069 -0.095396
v 0.238793 0.784637 0.206014
v 0.105044 1.195457 0.075044
v 0.238793 0.772705 -0.172868
v 0.105044 1.195457 -0.095396
v 0.174390 1.052350 0.127889
v 0.174390 1.052351 -0.125301
v 0.107148 1.149069 0.075045
v 0.107148 1.149069 -0.095396
v -0.075301 0.772705 -0.193661
v -0.166956 0.772705 -0.172868
v -0.092568 1.052351 -0.125301
v -0.127158 0.772705 -0.143085
v 0.092568 1.052351 -0.125301
v 0.075301 0.772705 -0.193661
v 0.166956 0.772705 -0.172868
v 0.127158 0.772705 -0.143086
v -0.238793 0.775091 -0.097092
v -0.238793 0.777477 -0.021316
v -0.238793 0.779864 0.054461
v -0.238793 0.782250 0.130237
v -0.174390 1.052350 0.043492
v -0.174390 1.052351 -0.040904
v -0.209010 0.776284 -0.059204
v -0.209010 0.781057 0.092349
v 0.238793 0.775091 -0.097091
v 0.238793 0.777477 -0.021316
v 0.238793 0.779864 0.054461
v 0.238793 0.782250 0.130237
v 0.174390 1.052350 0.043492
v 0.174390 1.052351 -0.040904
v 0.209010 0.776284 -0.059204
v 0.209010 0.781057 0.092349
v -0.179095 0.784637 0.220014
v -0.089214 0.784637 0.234014
v 0.081456 1.052350 0.127889
v 0.179095 0.784637 0.220014
v 0.089214 0.784637 0.234014
v -0.081456 1.052350 0.127889
v -0.134154 0.784637 0.197231
v 0.134154 0.784637 0.197231
v -0.000000 1.062083 -0.120465
v 0.166749 1.062084 -0.120465
v 0.166749 1.062083 0.120595
v -0.000000 1.062083 0.120595
v -0.166749 1.062083 0.120595
v -0.166749 1.062084 -0.120465
vn -0.9990 0.0453 -0.0000
vn -0.0000 -0.0000 1.0000
vn -0.0000 1.0000 -0.0000
vn -0.0022 -0.9996 0.0296
vn -0.0000 -0.0000 -1.0000
vn -0.0000 0.1677 -0.9858
vn -0.1479 0.4067 0.9015
vn -0.9727 0.2319 -0.0035
vn -0.0000 0.4450 -0.8955
vn -0.0000 0.5997 0.8002
vn -0.7866 0.6175 -0.0000
vn 0.9990 0.0453 -0.0000
vn 0.0022 -0.9996 0.0296
vn 0.6023 0.3092 0.7359
vn 0.9727 0.2319 -0.0035
vn 0.7866 0.6175 -0.0000
vn -0.0000 0.2375 -0.9714
vn 0.5990 -0.0232 -0.8004
vn -0.6922 0.1308 -0.7098
vn 0.6922 0.1308 -0.7098
vn -0.5990 -0.0232 -0.8004
vn -0.9741 0.2259 -0.0034
vn -0.7858 0.0577 0.6158
vn -0.7765 0.1381 -0.6148
vn -0.9734 0.2289 -0.0034
vn -0.7724 0.2067 0.6006
vn -0.7863 -0.0109 -0.6177
vn 0.7863 -0.0109 -0.6177
vn 0.7724 0.2067 0.6006
vn 0.9734 0.2289 -0.0034
vn 0.7765 0.1381 -0.6148
vn 0.7858 0.0577 0.6158
vn 0.9741 0.2259 -0.0034
vn 0.1479 0.4067 0.9015
vn -0.0864 0.3255 0.9416
vn -0.6024 0.3092 0.7359
vn -0.4477 0.1406 0.8831
vn 0.4477 0.1406 0.8831
vn 0.0864 0.3255 0.9416
vn -0.8249 0.5652 -0.0000
vn -0.0000 0.4639 0.8859
vn 0.8249 0.5652 -0.0000
vn -0.0000 0.2769 -0.9609
vt 0.605046 0.000000
vt 0.625000 0.000000
vt 0.625000 0.250000
vt 0.605046 0.250000
vt 0.605046 0.875000
vt 0.625000 0.875000
vt 0.625000 1.000000
vt 0.605046 1.000000
vt 0.750000 0.500000
vt 0.875000 0.500000
vt 0.875000 0.750000
vt 0.750000 0.750000
vt 0.125000 0.500000
vt 0.166667 0.500000
vt 0.187500 0.500000
vt 0.208333 0.500000
vt 0.250000 0.500000
vt 0.250000 0.750000
vt 0.187500 0.750000
vt 0.171875 0.750000
vt 0.156250 0.750000
vt 0.125000 0.750000
vt 0.125000 0.700000
vt 0.125000 0.675000
vt 0.125000 0.650000
vt 0.125000 0.600000
vt 0.125000 0.575000
vt 0.125000 0.550000
vt 0.625000 0.375000
vt 0.605046 0.375000
vt 0.980841 0.295648
vt 0.781740 0.632736
vt 0.623539 0.632736
vt 0.834394 0.278981
vt 0.467113 0.300287
vt 0.467113 0.627614
vt 0.304719 0.627614
vt 0.244747 0.300287
vt 0.999811 0.315320
vt 0.777175 0.623960
vt 0.599195 0.623960
vt 0.831480 0.303616
vt 0.720740 0.690337
vt 0.465338 0.690337
vt 0.465338 0.632736
vt 0.467113 0.686742
vt 0.204942 0.686741
vt 0.142326 0.627614
vt 0.721455 0.690911
vt 0.274768 0.690911
vt 0.243235 0.623960
vt 0.421215 0.623960
vt 0.032089 0.273648
vt 0.201893 0.264315
vt 0.307137 0.632736
vt 0.148936 0.632736
vt 0.629507 0.627614
vt 0.689479 0.300287
vt 0.745070 0.300287
vt 0.036998 0.293202
vt 0.190916 0.292794
vt 0.351449 0.639024
vt 0.178664 0.639023
vt 0.209936 0.690337
vt 0.791901 0.627614
vt 0.729285 0.686741
vt 0.524235 0.639024
vt 0.697020 0.639024
vt 0.666408 0.704021
vt 0.232758 0.704021
vt 0.541499 0.245648
vt 0.687947 0.262315
vt 0.371696 0.254981
vt 0.761170 0.270648
vt 0.286794 0.259648
vt 0.326487 0.268504
vt 0.158156 0.256800
vt 0.410653 0.274356
vt 0.494818 0.280208
vt 0.663149 0.291912
vt 0.747315 0.297764
vt 0.267876 0.292590
vt 0.344835 0.292387
vt 0.498753 0.291979
vt 0.575712 0.291775
vt 0.652672 0.291571
vt 0.806590 0.291164
vt 0.133564 0.300287
vt 0.022381 0.300287
vt 0.189156 0.300287
vt 0.800662 0.300287
vt 0.911845 0.300287
vt 0.665735 0.757862
vt 0.306301 0.757862
vt 0.666668 0.745869
vt 0.467113 0.745869
vt 0.635796 0.769019
vt 0.286852 0.769019
vt 0.659741 0.747938
vt 0.465338 0.747938
vt 0.267558 0.745869
vt 0.270935 0.747938
s 0
f 73/58/34 62/59/34 64/60/34 74/61/34
f 75/62/35 68/63/35 62/64/35 73/65/35
f 66/66/36 64/67/36 62/68/36 68/69/36
f 63/70/37 86/71/37 88/72/37 85/73/37 65/74/37 67/75/37 110/76/37 115/77/37 109/78/37 61/79/37 96/80/37 100/81/37 95/82/37 94/83/37 99/84/37 93/85/37
f 74/61/38 64/60/38 66/86/38 76/87/38
f 63/88/39 70/89/39 87/90/39 86/91/39
f 67/92/40 71/93/40 114/94/40 110/95/40
f 61/96/41 69/97/41 97/98/41 96/99/41
f 70/89/42 122/100/42 117/101/42 72/102/42 87/90/42
f 71/93/43 120/103/43 121/104/43 69/105/43 114/94/43
f 69/97/44 121/106/44 122/107/44 70/108/44 98/109/44 97/98/44
f 83/58/45 84/61/45 80/60/45 78/59/45
f 75/62/35 83/65/35 78/64/35 68/63/35
f 66/66/36 68/69/36 78/68/36 80/67/36
f 79/70/46 101/85/46 107/84/46 102/83/46 103/82/46 108/81/46 104/80/46 77/79/46 112/78/46 116/77/46 113/76/46 67/75/46 65/74/46 90/73/46 92/72/46 91/71/46
f 84/61/38 76/87/38 66/86/38 80/60/38
f 79/110/39 91/111/39 89/112/39 82/113/39
f 111/114/47 113/115/47 116/116/47
f 77/117/48 104/118/48 105/119/48 81/120/48
f 82/113/42 89/112/42 72/102/42 117/101/42 118/121/42
f 71/93/43 111/114/43 81/122/43 119/123/43 120/103/43
f 81/120/49 105/119/49 106/124/49 82/125/49 118/126/49 119/127/49
f 65/128/50 85/129/50 87/90/50 72/102/50 89/112/50 90/130/50
f 86/91/51 87/90/51 88/131/51
f 88/131/52 87/90/52 85/129/52
f 89/112/53 92/132/53 90/130/53
f 92/132/54 89/112/54 91/111/54
f 93/133/55 98/109/55 70/108/55 63/134/55
f 99/135/56 98/109/56 93/133/56
f 94/136/57 98/109/57 99/135/57
f 95/137/58 97/98/58 98/109/58 94/136/58
f 100/138/59 97/98/59 95/137/59
f 96/99/60 97/98/60 100/138/60
f 105/119/61 104/118/61 108/139/61
f 108/139/62 103/140/62 105/119/62
f 105/119/63 103/140/63 102/141/63 106/124/63
f 106/124/64 102/141/64 107/142/64
f 107/142/65 101/143/65 106/124/65
f 106/124/66 101/143/66 79/144/66 82/125/66
f 113/115/67 111/114/67 71/93/67 67/92/67
f 109/145/68 114/94/68 69/105/68 61/146/68
f 110/95/69 114/94/69 115/147/69
f 116/116/70 112/148/70 111/114/70
f 115/147/71 114/94/71 109/145/71
f 111/114/72 112/148/72 77/149/72 81/122/72
f 122/107/73 121/106/73 73/150/73 74/151/73
f 120/103/74 119/123/74 83/152/74 75/153/74
f 119/127/75 118/126/75 84/154/75 83/155/75
f 117/101/76 122/100/76 74/156/76 76/157/76
f 121/104/74 120/103/74 75/153/74 73/158/74
f 118/121/76 117/101/76 76/157/76 84/159/76
o torso
v -0.097268 1.195315 0.073419
v -0.128848 1.397732 0.087333
v -0.097268 1.195315 -0.091969
v -0.128848 1.404429 -0.130247
v 0.097268 1.195315 0.073419
v 0.128848 1.397731 0.087333
v 0.097268 1.195315 -0.091969
v 0.128848 1.404429 -0.130247
v -0.114105 1.516949 0.077890
v -0.114105 1.516949 -0.082857
v 0.114105 1.516949 -0.082857
v 0.114105 1.516949 0.077890
v -0.036607 1.583005 0.041895
v -0.036516 1.582965 -0.031382
v 0.036686 1.583048 -0.031220
v 0.036596 1.583008 0.041907
vn -0.9884 -0.1519 -0.0027
vn -0.0000 -0.1801 -0.9837
vn 0.9884 -0.1519 -0.0027
vn -0.0000 -0.0686 0.9976
vn -0.0000 -1.0000 -0.0000
vn -0.9920 0.1259 0.0022
vn 0.6490 0.7608 0.0004
vn -0.0000 0.0790 0.9969
vn -0.0000 0.3881 -0.9216
vn 0.9920 0.1259 0.0022
vn -0.0006 1.0000 -0.0000
vn -0.6483 0.7614 -0.0004
vn -0.0000 0.4784 0.8781
vn 0.0003 0.6153 -0.7883
vt 0.961799 -0.022097
vt 0.961918 0.104694
vt 0.930220 0.104813
vt 0.930101 -0.021978
vt 0.849334 -0.042227
vt 0.868393 0.202092
vt 0.712872 0.202092
vt 0.731930 -0.042227
vt 0.898404 -0.021859
vt 0.898523 0.104932
vt 0.866825 0.105050
vt 0.866706 -0.021740
vt 0.835127 0.105169
vt 0.835008 -0.021622
vt 0.562442 0.338411
vt 0.703123 0.338411
vt 0.703123 0.479092
vt 0.562442 0.479092
vt 0.859495 0.345988
vt 0.721770 0.345988
vt 0.843804 0.338411
vt 0.984485 0.338411
vt 0.984485 0.479092
vt 0.843804 0.479092
vt 0.812721 0.425721
vt 0.768543 0.425721
s 0
f 123/160/77 124/161/77 126/162/77 125/163/77
f 125/164/78 126/165/78 130/166/78 129/167/78
f 129/168/79 130/169/79 128/170/79 127/171/79
f 127/171/80 128/170/80 124/172/80 123/173/80
f 125/174/81 129/175/81 127/176/81 123/177/81
f 126/162/82 124/161/82 131/161/82 132/162/82
f 134/170/83 133/169/83 137/169/83 138/170/83
f 124/172/84 128/170/84 134/170/84 131/172/84
f 130/166/85 126/165/85 132/178/85 133/179/85
f 128/170/86 130/169/86 133/169/86 134/170/86
f 137/180/87 136/181/87 135/182/87 138/183/87
f 132/162/88 131/161/88 135/161/88 136/162/88
f 131/172/89 134/170/89 138/170/89 135/172/89
f 133/179/90 132/178/90 136/184/90 137/185/90
o jacket
v -0.167848 1.131994 0.146960
v -0.158301 1.139102 0.138205
v -0.131857 1.569618 0.110970
v -0.125368 1.557899 0.102700
v -0.170052 1.131994 -0.147587
v -0.159056 1.139264 -0.139583
v -0.134061 1.548759 -0.094086
v -0.126177 1.536366 -0.087632
v -0.165796 1.406667 0.148794
v -0.155488 1.404373 0.138134
v -0.168000 1.420269 -0.143570
v -0.155822 1.418050 -0.133800
v 0.000000 1.632969 0.061324
v 0.000000 1.632969 0.082222
v -0.024670 1.540009 -0.107673
v -0.036158 1.548757 -0.117247
v -0.063340 1.579754 0.073687
v -0.069959 1.589111 0.082216
v -0.052087 1.558308 -0.051899
v -0.063883 1.568252 -0.055395
v -0.063887 1.612111 -0.055395
v -0.043921 1.610208 -0.051731
v -0.069960 1.632969 0.082217
v -0.059529 1.632969 0.071159
v -0.051795 1.131993 -0.170751
v -0.034841 1.140617 -0.153847
v 0.000000 1.131993 0.146964
v 0.000000 1.140293 0.130076
v 0.000000 1.569617 0.110974
v 0.000000 1.558606 0.094932
v 0.000000 1.404375 0.128172
v 0.000000 1.406667 0.148799
v -0.036154 1.420269 -0.166734
v -0.032484 1.418127 -0.146489
v 0.000000 1.580462 0.065907
v 0.000000 1.589110 0.082220
v -0.152626 1.084159 0.127118
v -0.163068 1.084159 0.137929
v -0.152940 1.084159 -0.128640
v -0.165272 1.084159 -0.138555
v -0.038738 1.084159 -0.152202
v -0.039327 1.084159 -0.161720
v 0.000000 1.084159 0.127809
v 0.000000 1.084159 0.137934
v -0.037988 1.133156 -0.152744
v -0.039326 1.124926 -0.161718
v -0.154215 1.131968 -0.130572
v -0.165272 1.124927 -0.138554
v -0.153521 1.131968 0.129158
v -0.163068 1.124927 0.137927
v 0.000000 1.133156 0.128796
v 0.000000 1.124926 0.137932
v -0.193794 1.131994 -0.000313
v -0.183522 1.139183 -0.000689
v -0.157803 1.559188 0.008442
v -0.150617 1.547132 0.007534
v -0.180499 1.411211 0.002167
v -0.191742 1.413468 0.002612
v -0.065535 1.569031 0.010894
v -0.074742 1.578682 0.013410
v -0.059546 1.621588 0.009714
v -0.074745 1.622540 0.013411
v -0.177627 1.084159 -0.000761
v -0.189015 1.084159 -0.000313
v -0.178712 1.131968 -0.000707
v -0.189014 1.124927 -0.000313
v 0.167848 1.131994 0.146960
v 0.158301 1.139102 0.138205
v 0.131857 1.569618 0.110970
v 0.125368 1.557899 0.102700
v 0.170052 1.131994 -0.147587
v 0.159056 1.139264 -0.139583
v 0.134061 1.548759 -0.094086
v 0.126177 1.536366 -0.087632
v 0.165796 1.406667 0.148794
v 0.155488 1.404373 0.138134
v 0.168000 1.420269 -0.143570
v 0.155822 1.418050 -0.133800
v 0.024670 1.540009 -0.107673
v 0.036158 1.548757 -0.117247
v 0.063340 1.579754 0.073687
v 0.069959 1.589111 0.082216
v 0.052088 1.558308 -0.051899
v 0.063883 1.568252 -0.055395
v 0.063887 1.612111 -0.055395
v 0.043921 1.610208 -0.051731
v 0.069960 1.632969 0.082217
v 0.059529 1.632969 0.071159
v 0.051795 1.131993 -0.170751
v 0.034841 1.140617 -0.153847
v 0.036154 1.420269 -0.166734
v 0.032484 1.418127 -0.146489
v 0.152626 1.084159 0.127118
v 0.163068 1.084159 0.137929
v 0.152940 1.084159 -0.128640
v 0.165272 1.084159 -0.138555
v 0.038738 1.084159 -0.152202
v 0.039327 1.084159 -0.161720
v 0.037988 1.133156 -0.152744
v 0.039326 1.124926 -0.161718
v 0.154215 1.131968 -0.130572
v 0.165272 1.124927 -0.138554
v 0.153521 1.131968 0.129158
v 0.163068 1.124927 0.137927
v 0.193794 1.131994 -0.000313
v 0.183522 1.139183 -0.000689
v 0.157803 1.559188 0.008442
v 0.150617 1.547132 0.007534
v 0.180499 1.411211 0.002167
v 0.191742 1.413468 0.002612
v 0.065535 1.569031 0.010894
v 0.074742 1.578682 0.013410
v 0.059546 1.621588 0.009714
v 0.074745 1.622540 0.013411
v 0.177627 1.084159 -0.000761
v 0.189015 1.084159 -0.000313
v 0.178712 1.131968 -0.000707
v 0.189014 1.124927 -0.000313
vn 1.0000 -0.0000 -0.0000
vn -0.0000 -1.0000 -0.0000
vn 0.4689 0.6713 -0.5740
vn -0.0000 1.0000 -0.0000
vn 0.0799 0.9856 -0.1488
vn 0.8755 -0.0181 -0.4829
vn 0.9020 0.1183 -0.4153
vn 0.9950 -0.0089 -0.0997
vn 0.7885 0.0805 -0.6098
vn -0.9534 0.2299 0.1956
vn 0.9542 -0.2190 -0.2038
vn -0.0000 0.2261 0.9741
vn -0.0610 -0.2117 -0.9754
vn -0.0000 -0.0067 1.0000
vn -0.0575 -0.0034 -0.9983
vn -0.9847 0.0058 0.1743
vn 0.9836 -0.0098 -0.1800
vn -0.9976 -0.0001 0.0694
vn 0.9957 -0.0923 -0.0013
vn -0.0784 0.9402 -0.3315
vn 0.1036 -0.9289 0.3557
vn -0.2696 0.9605 -0.0686
vn 0.2967 -0.9518 0.0779
vn -0.9125 -0.0001 -0.4090
vn 0.8701 -0.1384 0.4731
vn -0.1821 0.0193 -0.9831
vn 0.1083 -0.0246 0.9938
vn -0.0001 -0.0000 1.0000
vn -0.1413 -0.0614 -0.9881
vn -0.0000 0.8277 0.5611
vn -0.0463 -0.7735 -0.6321
vn -0.1809 -0.0000 -0.9835
vn 0.1945 0.0261 0.9806
vn -0.9856 -0.0000 -0.1693
vn 0.9819 0.0279 0.1874
vn -0.1833 0.3743 -0.9090
vn 0.1406 -0.3496 0.9263
vn -0.0000 -0.0000 1.0000
vn 0.0010 0.0313 -0.9995
vn -0.0000 -0.7876 0.6162
vn -0.0266 0.5802 -0.8141
vn -0.7808 -0.6111 -0.1299
vn 0.7812 0.6078 0.1425
vn -0.1042 -0.8292 -0.5492
vn 0.1172 0.5705 0.8129
vn 0.7776 0.6117 -0.1457
vn -0.7759 -0.6149 0.1410
vn 0.9813 0.0245 -0.1911
vn -0.9828 -0.0000 0.1845
vn 0.2191 -0.9584 0.1829
vn -0.2009 0.9668 -0.1583
vn 0.9604 -0.1278 0.2475
vn -0.9878 -0.0001 -0.1559
vn 0.9844 -0.0139 0.1756
vn -0.9872 0.0091 -0.1595
vn 0.9430 -0.2623 0.2048
vn -0.9448 0.2710 -0.1843
vn -0.0572 0.9850 -0.1628
vn -0.4689 0.6713 -0.5740
vn -0.0799 0.9856 -0.1488
vn -0.8755 -0.0181 -0.4829
vn -0.9020 0.1183 -0.4153
vn -0.9950 -0.0089 -0.0997
vn -0.7885 0.0805 -0.6098
vn 0.9534 0.2299 0.1956
vn -0.9542 -0.2190 -0.2038
vn 0.0610 -0.2117 -0.9754
vn 0.0575 -0.0034 -0.9983
vn 0.9847 0.0058 0.1743
vn -0.9836 -0.0098 -0.1800
vn 0.9976 -0.0001 0.0694
vn -0.9957 -0.0923 -0.0013
vn 0.0784 0.9402 -0.3315
vn -0.1036 -0.9289 0.3557
vn 0.2696 0.9605 -0.0686
vn -0.2967 -0.9518 0.0779
vn 0.9125 -0.0001 -0.4090
vn -0.8701 -0.1384 0.4731
vn 0.1821 0.0193 -0.9831
vn -0.1083 -0.0246 0.9938
vn 0.0001 -0.0000 1.0000
vn 0.1413 -0.0614 -0.9881
vn 0.0463 -0.7735 -0.6321
vn 0.1809 -0.0000 -0.9835
vn -0.1945 0.0261 0.9806
vn 0.9856 -0.0000 -0.1693
vn -0.9819 0.0279 0.1874
vn 0.1833 0.3743 -0.9090
vn -0.1406 -0.3496 0.9263
vn -0.0010 0.0313 -0.9995
vn 0.0266 0.5802 -0.8141
vn 0.7808 -0.6111 -0.1299
vn -0.7812 0.6078 0.1425
vn 0.1042 -0.8292 -0.5492
vn -0.1171 0.5705 0.8129
vn -0.7776 0.6117 -0.1457
vn 0.7759 -0.6149 0.1410
vn -0.9813 0.0245 -0.1911
vn 0.9828 -0.0000 0.1845
vn -0.2191 -0.9584 0.1829
vn 0.2009 0.9668 -0.1583
vn -0.9604 -0.1278 0.2475
vn 0.9878 -0.0001 -0.1559
vn -0.9844 -0.0139 0.1756
vn 0.9872 0.0091 -0.1595
vn -0.9430 -0.2623 0.2048
vn 0.9448 0.2710 -0.1843
vn 0.0572 0.9850 -0.1628
vt 0.526588 0.076535
vt 0.526588 0.122191
vt 0.476927 0.078336
vt 0.549527 0.078336
vt 0.543795 0.278863
vt 0.575077 0.263709
vt 0.579677 0.277129
vt 0.544762 0.300865
vt 0.472094 0.187308
vt 0.463130 0.263649
vt 0.456609 0.273822
vt 0.460775 0.185178
vt 0.503462 0.271256
vt 0.500685 0.287344
vt 0.546771 0.078336
vt 0.544014 0.078336
vt 0.546771 0.078336
vt 0.469776 0.556662
vt 0.448056 0.140765
vt 0.526762 0.460495
vt 0.526762 0.294097
vt 0.163460 0.643287
vt 0.163460 0.673217
vt 0.410266 0.909358
vt 0.410266 0.653759
vt 0.310982 0.918686
vt 0.310982 0.656927
vt 0.442080 0.078336
vt 0.476927 0.125343
vt 0.524579 0.289266
vt 0.505006 0.294097
vt 0.503922 0.289266
vt 0.442080 0.125343
vt 0.320921 0.672891
vt 0.460549 0.658313
vt 0.438361 0.903284
vt 0.343346 0.903780
vt 0.325388 0.656638
vt 0.325388 0.907208
vt 0.414227 0.907208
vt 0.443308 0.656638
vt 0.261385 0.653759
vt 0.291050 0.909358
vt 0.462517 0.294097
vt 0.461890 0.460495
vt 0.460883 0.294097
vt 0.460256 0.460495
vt 0.484004 0.122191
vt 0.484004 0.076535
vt 0.484004 0.076535
vt 0.115899 0.843551
vt 0.130328 0.907928
vt 0.079375 0.883822
vt 0.118388 0.758384
vt 0.081864 0.763555
vt 0.084353 0.643287
vt 0.120877 0.673217
vt 0.441421 0.122191
vt 0.404837 0.079681
vt 0.441421 0.076535
vt 0.343163 0.164656
vt 0.363447 0.580880
vt 0.549527 0.125343
vt 0.546771 0.125343
vt 0.420000 0.656927
vt 0.389620 0.918686
vt 0.544014 0.125343
vt 0.464151 0.289266
vt 0.462516 0.289266
vt 0.459248 0.294097
vt 0.460882 0.289266
vt 0.462516 0.289266
vt 0.458622 0.460495
vt 0.207467 0.656638
vt 0.236549 0.907208
vt 0.184175 0.658423
vt 0.325509 0.668904
vt 0.338433 0.909782
vt 0.206434 0.912916
s 0
f 173/186/91 151/187/91 152/187/91 174/186/91
f 179/188/92 177/189/92 178/189/92 180/188/92
f 160/190/93 153/191/93 154/192/93 159/193/93
f 151/194/94 162/195/94 161/196/94 152/197/94
f 199/198/95 160/190/95 159/193/95 200/199/95
f 201/200/92 175/201/92 176/201/92 202/202/92
f 172/203/96 164/204/96 163/204/96 171/203/96
f 170/205/91 165/206/91 166/206/91 169/205/91
f 168/207/91 173/208/91 174/208/91 167/207/91
f 167/209/91 170/210/91 169/210/91 168/209/91
f 153/211/97 172/212/97 171/212/97 154/211/97
f 175/201/92 181/213/92 182/213/92 176/201/92
f 183/214/98 179/188/98 180/188/98 184/214/98
f 189/215/91 166/206/91 165/206/91 190/215/91
f 164/216/99 183/217/99 184/217/99 163/216/99
f 181/213/91 189/218/91 190/218/91 182/213/91
f 196/219/100 147/220/100 141/221/100 193/222/100
f 195/223/101 194/224/101 142/225/101 148/226/101
f 147/227/102 170/210/102 167/209/102 141/228/102
f 148/227/103 142/228/103 168/209/103 169/210/103
f 139/229/104 165/206/104 170/205/104 147/230/104
f 140/229/105 148/230/105 169/205/105 166/206/105
f 191/231/106 139/229/106 147/230/106 196/232/106
f 192/231/107 195/232/107 148/230/107 140/229/107
f 200/233/108 198/234/108 156/186/108 161/187/108
f 199/233/109 162/187/109 155/186/109 197/235/109
f 158/236/110 154/237/110 145/238/110
f 157/236/111 146/238/111 153/237/111
f 198/239/112 193/240/112 141/241/112 156/242/112
f 197/239/113 155/242/113 142/241/113 194/240/113
f 159/243/114 154/244/114 158/245/114
f 160/243/115 157/245/115 153/244/115
f 163/204/116 143/246/116 149/247/116 171/203/116
f 164/204/117 172/203/117 150/247/117 144/246/117
f 161/187/118 156/186/118 174/186/118 152/187/118
f 162/187/119 151/187/119 173/186/119 155/186/119
f 156/242/120 141/241/120 167/207/120 174/208/120
f 155/242/121 173/208/121 168/207/121 142/241/121
f 178/189/122 186/248/122 184/214/122 180/188/122
f 177/189/123 179/188/123 183/214/123 185/248/123
f 202/202/124 204/249/124 186/248/124 178/189/124
f 201/200/125 177/189/125 185/248/125 203/249/125
f 171/212/126 149/250/126 145/251/126 154/211/126
f 172/212/127 153/211/127 146/251/127 150/250/127
f 182/213/128 190/218/128 188/252/128 176/201/128
f 181/213/129 175/201/129 187/252/129 189/218/129
f 190/215/130 165/206/130 139/229/130 188/253/130
f 189/215/131 187/253/131 140/229/131 166/206/131
f 204/254/132 191/231/132 143/255/132 186/256/132
f 203/257/133 185/256/133 144/255/133 192/231/133
f 186/256/134 143/255/134 163/216/134 184/217/134
f 185/256/135 183/217/135 164/216/135 144/255/135
f 187/253/136 203/257/136 192/231/136 140/229/136
f 188/253/137 139/229/137 191/231/137 204/254/137
f 175/201/138 201/200/138 203/249/138 187/252/138
f 176/201/139 188/252/139 204/249/139 202/202/139
f 157/236/140 197/239/140 194/240/140 146/238/140
f 158/236/141 145/238/141 193/240/141 198/239/141
f 160/243/142 199/233/142 197/235/142 157/245/142
f 159/243/143 158/245/143 198/234/143 200/233/143
f 144/255/144 150/258/144 195/232/144 192/231/144
f 143/255/145 191/231/145 196/232/145 149/258/145
f 150/259/146 146/260/146 194/224/146 195/223/146
f 149/261/147 196/262/147 193/263/147 145/264/147
f 177/189/92 201/200/92 202/202/92 178/189/92
f 162/195/148 199/198/148 200/199/148 161/196/148
f 235/188/92 236/188/92 234/189/92 233/189/92
f 224/190/149 223/193/149 218/192/149 217/191/149
f 151/194/94 152/197/94 225/196/94 226/195/94
f 251/198/150 252/199/150 223/193/150 224/190/150
f 253/200/92 254/202/92 232/201/92 231/201/92
f 230/203/151 229/203/151 227/204/151 228/204/151
f 217/211/152 218/211/152 229/212/152 230/212/152
f 231/201/92 232/201/92 182/213/92 181/213/92
f 237/214/153 238/214/153 236/188/153 235/188/153
f 228/216/154 227/216/154 238/217/154 237/217/154
f 248/219/155 245/222/155 207/221/155 213/220/155
f 247/223/156 214/226/156 208/225/156 246/224/156
f 213/227/102 207/228/102 167/209/102 170/210/102
f 214/227/157 169/210/157 168/209/157 208/228/157
f 205/229/104 213/230/104 170/205/104 165/206/104
f 206/229/158 166/206/158 169/205/158 214/230/158
f 243/231/159 248/232/159 213/230/159 205/229/159
f 244/231/160 206/229/160 214/230/160 247/232/160
f 252/233/161 225/187/161 220/186/161 250/234/161
f 251/233/162 249/235/162 219/186/162 226/187/162
f 222/236/163 211/238/163 218/237/163
f 221/236/164 217/237/164 212/238/164
f 250/239/165 220/242/165 207/241/165 245/240/165
f 249/239/166 246/240/166 208/241/166 219/242/166
f 223/243/167 222/245/167 218/244/167
f 224/243/168 217/244/168 221/245/168
f 227/204/169 229/203/169 215/247/169 209/246/169
f 228/204/170 210/246/170 216/247/170 230/203/170
f 225/187/171 152/187/171 174/186/171 220/186/171
f 226/187/172 219/186/172 173/186/172 151/187/172
f 220/242/120 174/208/120 167/207/120 207/241/120
f 219/242/173 208/241/173 168/207/173 173/208/173
f 234/189/174 236/188/174 238/214/174 240/248/174
f 233/189/175 239/248/175 237/214/175 235/188/175
f 254/202/176 234/189/176 240/248/176 256/249/176
f 253/200/177 255/249/177 239/248/177 233/189/177
f 229/212/178 218/211/178 211/251/178 215/250/178
f 230/212/179 216/250/179 212/251/179 217/211/179
f 182/213/128 232/201/128 242/252/128 190/218/128
f 181/213/180 189/218/180 241/252/180 231/201/180
f 190/215/130 242/253/130 205/229/130 165/206/130
f 189/215/181 166/206/181 206/229/181 241/253/181
f 256/254/182 240/256/182 209/255/182 243/231/182
f 255/257/183 244/231/183 210/255/183 239/256/183
f 240/256/184 238/217/184 227/216/184 209/255/184
f 239/256/185 210/255/185 228/216/185 237/217/185
f 241/253/186 206/229/186 244/231/186 255/257/186
f 242/253/187 256/254/187 243/231/187 205/229/187
f 231/201/188 241/252/188 255/249/188 253/200/188
f 232/201/189 254/202/189 256/249/189 242/252/189
f 221/236/190 212/238/190 246/240/190 249/239/190
f 222/236/191 250/239/191 245/240/191 211/238/191
f 224/243/192 221/245/192 249/235/192 251/233/192
f 223/243/193 252/233/193 250/234/193 222/245/193
f 210/255/194 244/231/194 247/232/194 216/258/194
f 209/255/195 215/258/195 248/232/195 243/231/195
f 216/259/196 247/223/196 246/224/196 212/260/196
f 215/261/197 211/264/197 245/263/197 248/262/197
f 233/189/92 234/189/92 254/202/92 253/200/92
f 226/195/198 225/196/198 252/199/198 251/198/198
o arm
v -0.477008 1.108595 0.065794
v -0.545883 1.193944 0.065794
v -0.477008 1.108595 -0.051661
v -0.545883 1.193944 -0.051661
v -0.094869 1.533942 0.075163
v -0.204412 1.565736 0.075163
v -0.094869 1.533942 -0.061030
v -0.204413 1.565735 -0.061030
v -0.452956 1.138801 -0.051661
v -0.522047 1.219027 -0.051661
v -0.452956 1.138801 0.065794
v -0.522047 1.219027 0.065794
v -0.516303 1.273921 -0.100243
v -0.415092 1.139917 0.114376
v -0.415091 1.139917 -0.100243
v -0.516303 1.273921 0.114376
v -0.351427 1.428184 -0.079514
v -0.245811 1.348212 0.093647
v -0.245811 1.348212 -0.079514
v -0.351427 1.428184 0.093647
v -0.276270 1.310732 -0.083244
v -0.381094 1.400427 0.097377
v -0.381094 1.400427 -0.083244
v -0.276270 1.310732 0.097377
v -0.378999 1.426134 -0.081379
v -0.261041 1.329472 0.095512
v -0.261041 1.329472 -0.081379
v -0.378999 1.426134 0.095512
v 0.477008 1.108595 0.065794
v 0.545883 1.193944 0.065794
v 0.477008 1.108595 -0.051661
v 0.545883 1.193944 -0.051661
v 0.094869 1.533942 0.075163
v 0.204413 1.565736 0.075163
v 0.094869 1.533942 -0.061030
v 0.204413 1.565735 -0.061030
v 0.452955 1.138801 -0.051661
v 0.522047 1.219028 -0.051661
v 0.452956 1.138801 0.065794
v 0.522047 1.219028 0.065794
v 0.516303 1.273922 -0.100243
v 0.415092 1.139917 0.114376
v 0.415091 1.139917 -0.100243
v 0.516303 1.273922 0.114376
v 0.351427 1.428185 -0.079514
v 0.245811 1.348212 0.093647
v 0.245811 1.348212 -0.079514
v 0.351427 1.428185 0.093647
v 0.276270 1.310733 -0.083244
v 0.381094 1.400428 0.097377
v 0.381094 1.400427 -0.083244
v 0.276271 1.310733 0.097377
v 0.378999 1.426135 -0.081379
v 0.261041 1.329473 0.095512
v 0.261041 1.329472 -0.081379
v 0.378999 1.426135 0.095512
vn -0.7782 -0.6280 -0.0000
vn 0.0400 0.0770 -0.9962
vn 0.2787 0.9604 -0.0000
vn -0.0000 -0.0000 1.0000
vn 0.7760 -0.6307 -0.0000
vn -0.7249 0.6889 -0.0000
vn -0.9946 0.1041 -0.0000
vn 0.7823 -0.6229 -0.0000
vn -0.6383 -0.5074 0.5789
vn -0.0000 -0.0000 -1.0000
vn 0.0618 0.0570 0.9965
vn -0.6832 0.7302 -0.0000
vn 0.0294 -0.9996 -0.0000
vn -0.6383 -0.5074 -0.5789
vn 0.0400 0.0770 0.9962
vn 0.0538 0.0681 -0.9962
vn 0.0618 0.0570 -0.9965
vn -0.9967 0.0812 -0.0000
vn 0.0528 0.0631 0.9966
vn 0.0538 0.0681 0.9962
vn -0.0742 0.9972 -0.0000
vn 0.0528 0.0631 -0.9966
vn 0.7782 -0.6280 -0.0000
vn -0.0400 0.0770 -0.9962
vn -0.2787 0.9604 -0.0000
vn -0.7760 -0.6307 -0.0000
vn 0.7249 0.6889 -0.0000
vn 0.9946 0.1041 -0.0000
vn -0.7823 -0.6229 -0.0000
vn 0.6383 -0.5074 0.5789
vn -0.0618 0.0570 0.9965
vn 0.6832 0.7302 -0.0000
vn -0.0295 -0.9996 -0.0000
vn 0.6383 -0.5074 -0.5789
vn -0.0400 0.0770 0.9962
vn -0.0538 0.0681 -0.9962
vn -0.0618 0.0570 -0.9965
vn 0.9967 0.0812 -0.0000
vn -0.0528 0.0631 0.9966
vn -0.0538 0.0681 0.9962
vn 0.0742 0.9972 -0.0000
vn -0.0528 0.0631 -0.9966
vt 0.375000 0.000000
vt 0.625000 0.000000
vt 0.625000 0.250000
vt 0.375000 0.250000
vt 0.391540 0.870957
vt 0.409719 0.898487
vt 0.384414 0.945837
vt 0.365560 0.934893
vt 0.497131 0.125795
vt 0.498570 0.123425
vt 0.498433 0.076784
vt 0.496978 0.077931
vt 0.148638 0.566021
vt 0.136155 0.838870
vt 0.058458 0.835103
vt 0.050175 0.561905
vt 0.417550 0.123075
vt 0.417565 0.076129
vt 0.029124 0.291139
vt 0.061551 0.196470
vt 0.136499 0.200056
vt 0.167935 0.297121
vt 0.421261 0.077369
vt 0.421116 0.125527
vt 0.420677 0.799253
vt 0.438097 0.845383
vt 0.439086 0.826486
vt 0.427194 0.798869
vt 0.396783 0.858055
vt 0.414825 0.888931
vt 0.042337 0.502893
vt 0.148996 0.505878
vt 0.132700 0.200860
vt 0.162547 0.262012
vt 0.040956 0.257833
vt 0.067303 0.198653
vt 0.056453 0.761586
vt 0.044931 0.576940
vt 0.145268 0.579450
vt 0.128666 0.762439
vt 0.149894 0.538584
vt 0.049343 0.534448
vt 0.394161 0.864506
vt 0.414464 0.897781
vt 0.151148 0.511164
vt 0.048511 0.507012
vt 0.042994 0.547747
vt 0.148119 0.550464
s 0
f 257/265/199 258/266/199 260/267/199 259/268/199
f 275/269/200 273/270/200 264/271/200 263/272/200
f 263/272/201 264/271/201 262/271/201 261/272/201
f 267/273/202 268/274/202 258/275/202 257/276/202
f 275/277/203 263/278/203 261/279/203 274/280/203
f 266/281/204 260/282/204 258/275/204 268/274/204
f 269/283/205 266/284/205 268/285/205 272/286/205
f 259/287/206 265/288/206 267/273/206 257/276/206
f 270/289/207 272/290/207 268/291/207 267/292/207
f 259/287/208 260/282/208 266/281/208 265/288/208
f 280/293/209 278/294/209 272/290/209 270/289/209
f 279/295/210 269/283/210 272/286/210 278/296/210
f 265/297/211 271/298/211 270/299/211 267/300/211
f 265/292/212 266/291/212 269/290/212 271/289/212
f 264/301/210 273/302/210 276/303/210 262/304/210
f 261/272/213 262/271/213 276/270/213 274/269/213
f 283/305/203 275/277/203 274/280/203 282/306/203
f 283/307/214 281/308/214 273/270/214 275/269/214
f 271/289/215 269/290/215 279/294/215 277/293/215
f 271/298/203 277/309/203 280/310/203 270/299/203
f 281/311/216 279/295/216 278/296/216 284/312/216
f 282/307/217 284/308/217 278/294/217 280/293/217
f 274/269/218 276/270/218 284/308/218 282/307/218
f 273/302/219 281/311/219 284/312/219 276/303/219
f 277/293/220 279/294/220 281/308/220 283/307/220
f 277/309/203 283/305/203 282/306/203 280/310/203
f 285/265/221 287/268/221 288/267/221 286/266/221
f 303/269/222 291/272/222 292/271/222 301/270/222
f 291/272/223 289/272/223 290/271/223 292/271/223
f 295/273/202 285/276/202 286/275/202 296/274/202
f 303/277/224 302/280/224 289/279/224 291/278/224
f 294/281/225 296/274/225 286/275/225 288/282/225
f 297/283/226 300/286/226 296/285/226 294/284/226
f 287/287/227 285/276/227 295/273/227 293/288/227
f 298/289/228 295/292/228 296/291/228 300/290/228
f 287/287/208 293/288/208 294/281/208 288/282/208
f 308/293/229 298/289/229 300/290/229 306/294/229
f 307/295/230 306/296/230 300/286/230 297/283/230
f 293/297/231 295/300/231 298/299/231 299/298/231
f 293/292/232 299/289/232 297/290/232 294/291/232
f 292/301/230 290/304/230 304/303/230 301/302/230
f 289/272/233 302/269/233 304/270/233 290/271/233
f 311/305/224 310/306/224 302/280/224 303/277/224
f 311/307/234 303/269/234 301/270/234 309/308/234
f 299/289/235 305/293/235 307/294/235 297/290/235
f 299/298/224 298/299/224 308/310/224 305/309/224
f 309/311/236 312/312/236 306/296/236 307/295/236
f 310/307/237 308/293/237 306/294/237 312/308/237
f 302/269/238 310/307/238 312/308/238 304/270/238
f 301/302/239 304/303/239 312/312/239 309/311/239
f 305/293/240 311/307/240 309/308/240 307/294/240
f 305/309/224 308/310/224 310/306/224 311/305/224
o hand
v -0.629958 1.127029 0.061420
v -0.520933 1.182120 0.030094
v -0.629958 1.127029 -0.048171
v -0.520933 1.182120 -0.016845
v -0.535186 1.038489 0.061420
v -0.488795 1.147908 0.030094
v -0.535186 1.038489 -0.048171
v -0.488795 1.147908 -0.016845
v -0.621171 1.052289 -0.048171
v -0.621171 1.052289 0.061420
v 0.629959 1.127029 0.061420
v 0.520933 1.182120 0.030094
v 0.629958 1.127029 -0.048171
v 0.520933 1.182120 -0.016845
v 0.535186 1.038489 0.061420
v 0.488795 1.147909 0.030094
v 0.535186 1.038489 -0.048171
v 0.488795 1.147908 -0.016845
v 0.621171 1.052289 -0.048171
v 0.621172 1.052289 0.061420
vn -0.4510 0.8925 -0.0000
vn 0.1855 0.1918 -0.9637
vn 0.9207 -0.3903 -0.0000
vn 0.1855 0.1918 0.9637
vn -0.9932 -0.1168 -0.0000
vn 0.7288 0.6847 -0.0000
vn -0.1585 -0.9874 -0.0000
vn -0.0000 -0.0000 1.0000
vn -0.0000 -0.0000 -1.0000
vn 0.4510 0.8925 -0.0000
vn -0.1855 0.1918 -0.9637
vn -0.9207 -0.3903 -0.0000
vn -0.1855 0.1918 0.9637
vn 0.9932 -0.1168 -0.0000
vn -0.7288 0.6847 -0.0000
vn 0.1585 -0.9874 -0.0000
vt 0.878682 0.601081
vt 0.930520 0.601081
vt 0.930520 0.652919
vt 0.878682 0.652919
vt 0.580396 0.912057
vt 0.534947 0.939235
vt 0.525007 0.908678
vt 0.550235 0.831385
vt 0.878682 0.704758
vt 0.930520 0.704758
vt 0.930520 0.756596
vt 0.878682 0.756596
vt 0.554099 0.828523
vt 0.520336 0.904092
vt 0.528604 0.940541
vt 0.580178 0.926044
vt 0.661354 0.996471
vt 0.614810 0.999051
vt 0.613749 0.967462
vt 0.660294 0.964882
vt 0.625000 0.500000
vt 0.875000 0.500000
vt 0.875000 0.750000
vt 0.625000 0.750000
vt 0.613768 0.938570
vt 0.660312 0.935990
vt 0.586905 0.863300
vt 0.582157 0.853715
s 0
f 313/313/241 314/314/241 316/315/241 315/316/241
f 315/317/242 316/318/242 320/319/242 319/320/242
f 319/321/243 320/322/243 318/323/243 317/324/243
f 317/325/244 318/326/244 314/327/244 313/328/244
f 313/329/245 315/330/245 321/331/245 322/332/245
f 320/333/246 316/334/246 314/335/246 318/336/246
f 319/337/247 317/338/247 322/332/247 321/331/247
f 317/325/248 313/328/248 322/339/248
f 315/317/249 319/320/249 321/340/249
f 323/313/250 325/316/250 326/315/250 324/314/250
f 325/317/251 329/320/251 330/319/251 326/318/251
f 329/321/252 327/324/252 328/323/252 330/322/252
f 327/325/253 323/328/253 324/327/253 328/326/253
f 323/329/254 332/332/254 331/331/254 325/330/254
f 330/333/255 328/336/255 324/335/255 326/334/255
f 329/337/256 331/331/256 332/332/256 327/338/256
f 327/325/248 332/339/248 323/328/248
f 325/317/249 331/340/249 329/320/249
o Cylinder
v -0.000028 1.581997 0.037345
v -0.000418 1.629785 0.037343
v -0.031595 1.581936 -0.018828
v -0.031647 1.629736 -0.019035
v 0.031819 1.582058 -0.018519
v 0.031763 1.629843 -0.018316
vn -0.8733 -0.0030 0.4872
vn 0.0081 -0.0000 -1.0000
vn 0.8672 0.0030 0.4979
vt 0.979733 0.786335
vt 0.979733 0.794078
vt 0.977152 0.794078
vt 0.977152 0.786335
vt 0.974571 0.794078
vt 0.974571 0.786335
vt 0.971990 0.794078
vt 0.971990 0.786335
s 0
f 333/341/257 334/342/257 336/343/257 335/344/257
f 335/344/258 336/343/258 338/345/258 337/346/258
f 337/346/259 338/345/259 334/347/259 333/348/259
o head
v -0.175860 1.859457 0.096325
v -0.128855 1.977661 0.053078
v -0.178867 1.856718 -0.110828
v -0.129723 1.970613 -0.132083
v -0.167316 1.916858 0.081655
v -0.002253 2.035222 -0.045844
v -0.143714 1.980681 -0.027041
v -0.205564 1.859907 -0.008892
v -0.000081 1.976649 -0.121059
v -0.006108 1.855969 0.213971
v -0.006035 1.985181 0.152097
v -0.125042 1.939534 -0.172723
v -0.191378 1.912450 -0.015292
v -0.006433 1.925316 0.196950
v 0.001686 1.918659 -0.177716
v -0.132072 1.689186 -0.077154
v -0.121912 1.859544 -0.077079
v -0.000047 1.613814 0.008330
v 0.001219 1.868349 -0.162599
v -0.072648 1.655330 -0.005877
v -0.144121 1.836410 -0.083116
v -0.193665 1.684202 -0.105052
v -0.086615 1.620898 -0.076119
v -0.152282 1.637269 -0.104122
v -0.197879 1.859108 -0.042111
v -0.195087 1.687284 -0.040268
v -0.153842 1.654948 -0.039354
v -0.192627 1.702895 0.100133
v -0.068853 1.700404 0.233947
v -0.157036 1.776314 0.206728
v -0.004866 1.681787 0.232889
v -0.213150 1.577601 0.124019
v -0.006571 1.732538 0.289853
v -0.004856 1.549114 0.290839
v -0.082194 1.546225 0.233789
v -0.002016 1.543628 0.161151
v -0.129609 1.482287 0.176223
v -0.207238 1.755288 0.075973
v -0.003779 1.485570 0.268738
v -0.234568 1.782418 0.021882
v -0.290027 1.725873 0.038772
v -0.197624 1.687443 0.055239
v -0.146787 1.614111 -0.066640
v -0.199694 1.588639 0.010747
v -0.096141 1.597548 -0.077878
v -0.104166 1.655225 -0.022420
v -0.166614 1.571787 -0.123894
v -0.270553 1.550216 0.115961
v -0.137452 1.652738 0.076582
v -0.001624 1.618049 0.110182
v -0.129767 1.649548 0.029614
v -0.001223 1.683725 0.062621
v -0.092100 1.721717 0.055451
v -0.000589 1.635215 0.047599
v -0.052996 1.910225 -0.194225
v 0.002559 1.862810 -0.193724
v -0.162133 1.793519 -0.169580
v -0.106908 1.809045 -0.182181
v -0.208481 1.776371 -0.140145
v -0.152785 1.860922 -0.198977
v -0.105855 1.829386 -0.149891
v 0.167141 1.862704 0.103700
v 0.119810 1.980015 0.058425
v 0.179101 1.860107 -0.103131
v 0.128770 1.973060 -0.126524
v 0.158151 1.919939 0.088654
v -0.003490 2.035210 -0.045871
v 0.138039 1.983349 -0.020983
v 0.201327 1.863759 -0.000143
v -0.001318 1.976638 -0.121085
v -0.007413 1.855957 0.213943
v -0.007272 1.985170 0.152071
v 0.126429 1.941914 -0.167316
v 0.186437 1.916027 -0.007168
v -0.007670 1.925304 0.196924
v 0.000449 1.918647 -0.177743
v 0.134080 1.691705 -0.071431
v 0.120705 1.861841 -0.071862
v 0.072299 1.656702 -0.002760
v 0.143586 1.839134 -0.076930
v 0.196899 1.687900 -0.096654
v 0.089922 1.622570 -0.072323
v 0.156409 1.640191 -0.097485
v 0.195093 1.862829 -0.033661
v 0.195477 1.690981 -0.031870
v 0.154849 1.657870 -0.032716
v 0.186689 1.706486 0.108289
v 0.057348 1.701598 0.236661
v 0.145167 1.779175 0.213226
v -0.006171 1.681775 0.232861
v 0.208534 1.581594 0.133087
v -0.007876 1.732526 0.289825
v -0.006161 1.549102 0.290811
v 0.073598 1.547700 0.237139
v -0.003321 1.543615 0.161123
v 0.124645 1.484694 0.181690
v 0.201331 1.759156 0.084758
v -0.005084 1.485558 0.268710
v 0.230282 1.786826 0.039330
v 0.286185 1.731329 0.051162
v 0.193903 1.691149 0.063658
v 0.149748 1.616918 -0.060264
v 0.199753 1.592421 0.019336
v 0.099954 1.599404 -0.073662
v 0.104495 1.657200 -0.017933
v 0.172815 1.575000 -0.116595
v 0.266738 1.555303 0.127514
v 0.133537 1.655303 0.082409
v -0.002929 1.618037 0.110154
v 0.127939 1.651987 0.035155
v -0.002528 1.683712 0.062593
v 0.087837 1.723420 0.059321
v -0.001598 1.635205 0.047577
v 0.055940 1.911257 -0.191883
v 0.001322 1.862799 -0.193751
v 0.165978 1.810197 -0.162537
v 0.111190 1.811110 -0.177491
v 0.211462 1.780346 -0.131115
v 0.156757 1.863852 -0.192321
v 0.108365 1.831414 -0.145285
vn -0.8649 0.4430 -0.2360
vn -0.9391 0.2411 0.2450
vn -0.8863 0.3941 -0.2434
vn -0.5192 0.5601 0.6456
vn -0.2789 0.9412 0.1907
vn -0.7943 0.5833 0.1700
vn -0.2130 0.9066 -0.3643
vn 0.0585 0.7383 -0.6720
vn -0.5622 0.2347 0.7930
vn -0.9032 0.3106 -0.2962
vn -0.5011 0.2662 0.8234
vn -0.4953 0.0361 0.8680
vn -0.4065 -0.2916 0.8659
vn 0.6900 0.7170 -0.0990
vn 0.3303 0.9125 -0.2411
vn 0.9878 -0.0311 0.1525
vn -0.5876 -0.4018 -0.7023
vn -0.2507 0.7601 0.5995
vn -0.1431 0.1826 0.9727
vn -0.3975 0.6991 0.5943
vn -0.9630 0.1091 0.2464
vn -0.6293 -0.5258 0.5723
vn -0.6740 0.1432 0.7247
vn -0.2029 -0.7341 0.6480
vn -0.7191 0.3659 0.5908
vn -0.3414 0.2009 0.9182
vn 0.0925 -0.4147 -0.9052
vn 0.4234 -0.7591 0.4945
vn -0.6567 -0.1737 0.7338
vn -0.5631 -0.2800 0.7775
vn -0.4209 -0.7954 -0.4361
vn 0.8829 -0.0316 0.4684
vn -0.8760 0.3123 0.3677
vn 0.5388 -0.2925 0.7900
vn -0.7459 0.0959 0.6591
vn -0.4910 0.6536 0.5759
vn 0.3827 0.9238 0.0086
vn 0.2927 0.3172 -0.9021
vn -0.9665 -0.1898 0.1729
vn 0.9399 0.1212 0.3192
vn -0.2129 -0.5680 0.7950
vn -0.2298 -0.6910 0.6854
vn -0.2338 0.9560 -0.1771
vn -0.1179 -0.7786 0.6164
vn 0.6961 -0.6711 0.2550
vn -0.8438 0.2349 -0.4825
vn -0.8916 0.4493 -0.0554
vn 0.4344 -0.9000 -0.0361
vn -0.2375 0.2193 0.9463
vn 0.0549 -0.5682 -0.8211
vn 0.6874 -0.7242 0.0552
vn -0.6063 0.6248 -0.4919
vn 0.4750 0.6026 -0.6412
vn -0.4163 0.7223 -0.5523
vn 0.0131 -0.4579 -0.8889
vn 0.8465 -0.5036 0.1727
vn 0.0930 0.7275 -0.6798
vn -0.9590 0.0094 -0.2833
vn 0.2204 -0.9529 -0.2081
vn 0.0597 -0.2593 -0.9639
vn -0.5910 0.4597 -0.6628
vn -0.1316 0.3555 -0.9254
vn -0.0633 -0.0847 -0.9944
vn 0.2397 0.2710 -0.9323
vn -0.1302 0.6815 -0.7201
vn 0.4402 -0.7661 0.4683
vn -0.3537 0.8340 -0.4234
vn 0.4017 -0.8472 0.3476
vn 0.8657 0.4594 -0.1988
vn 0.9229 0.2587 0.2851
vn 0.8883 0.4109 -0.2053
vn 0.4803 0.5695 0.6671
vn 0.2526 0.9462 0.2021
vn 0.7751 0.5981 0.2038
vn 0.2113 0.9106 -0.3552
vn -0.0436 0.7373 -0.6742
vn 0.5231 0.2450 0.8163
vn 0.9091 0.3277 -0.2572
vn 0.4602 0.2753 0.8441
vn 0.4567 0.0451 0.8885
vn 0.3743 -0.2842 0.8827
vn -0.6986 0.7038 -0.1289
vn -0.3369 0.9062 -0.2555
vn -0.9927 -0.0498 0.1099
vn 0.6247 -0.3903 -0.6763
vn 0.2103 0.7645 0.6094
vn 0.0976 0.1849 0.9779
vn 0.3583 0.7063 0.6105
vn 0.9493 0.1272 0.2875
vn 0.6139 -0.5141 0.5990
vn 0.6394 0.1556 0.7530
vn 0.1887 -0.7304 0.6564
vn 0.6860 0.3792 0.6210
vn 0.2978 0.2069 0.9319
vn -0.0456 -0.4161 -0.9082
vn -0.4298 -0.7672 0.4761
vn 0.6278 -0.1615 0.7615
vn 0.5344 -0.2696 0.8011
vn 0.4542 -0.7871 -0.4173
vn -0.9164 -0.0421 0.3980
vn 0.8401 0.3418 0.4211
vn -0.5310 -0.3726 0.7611
vn 0.7149 0.1097 0.6905
vn 0.4568 0.6001 0.6566
vn -0.4001 0.9164 -0.0082
vn -0.2596 0.3119 -0.9140
vn 0.9616 -0.1715 0.2144
vn -0.9549 0.1032 0.2784
vn 0.1893 -0.5642 0.8037
vn 0.2131 -0.6868 0.6949
vn 0.2231 0.9603 -0.1673
vn 0.1060 -0.7765 0.6212
vn -0.6936 -0.6843 0.2251
vn 0.8592 0.2511 -0.4459
vn 0.8845 0.4662 -0.0172
vn -0.4154 -0.9080 -0.0544
vn 0.1924 0.2234 0.9556
vn -0.0088 -0.5688 -0.8224
vn -0.6753 -0.7371 0.0259
vn 0.6150 0.6364 -0.4657
vn -0.4584 0.5938 -0.6613
vn 0.4259 0.7303 -0.5341
vn 0.0338 -0.4577 -0.8885
vn -0.8434 -0.5196 0.1364
vn -0.0775 0.7259 -0.6835
vn 0.9698 0.0326 -0.2416
vn 0.2143 -0.5342 -0.8177
vn 0.0045 -0.2743 -0.9616
vn 0.6894 0.4724 -0.5492
vn 0.1645 0.3583 -0.9190
vn 0.1075 -0.0830 -0.9907
vn -0.2045 0.2668 -0.9418
vn 0.1481 0.6842 -0.7142
vn -0.4454 -0.7745 0.4492
vn 0.3558 0.8407 -0.4082
vn -0.4002 -0.8548 0.3303
vt 0.500000 0.125000
vt 0.625000 0.125000
vt 0.625000 0.250000
vt 0.500000 0.250000
vt 0.375000 0.000000
vt 0.500000 0.000000
vt 0.375000 0.125000
vt 0.375000 0.250000
vt 0.375000 0.286851
vt 0.500000 0.875000
vt 0.625000 0.875000
vt 0.625000 1.000000
vt 0.500000 1.000000
vt 0.750000 0.625000
vt 0.875000 0.625000
vt 0.875000 0.750000
vt 0.750000 0.750000
vt 0.625000 0.000000
vt 0.750000 0.500000
vt 0.875000 0.500000
vt 0.625000 0.375000
vt 0.500000 0.375000
vt 0.375000 0.875000
vt 0.375000 1.000000
vt 0.375000 0.187500
vt 0.031641 0.658903
vt 0.000000 1.000000
vt 0.000000 0.000000
vt 0.216758 0.000000
vt 0.108379 0.000000
vt 0.973791 0.790246
vt 0.978451 0.793806
vt 0.981410 0.791579
vt 0.975923 0.788293
vt 0.975148 0.788188
vt 0.375000 0.331202
vt 0.375000 0.292689
vt 0.975212 0.788214
vt 0.976003 0.788326
vt 0.970833 0.787201
vt 0.969224 0.789925
s 0
f 351/349/260 345/350/260 342/351/260 350/352/260
f 339/353/261 343/354/261 351/349/261 346/355/261
f 341/356/262 350/352/262 398/357/262
f 352/358/263 349/359/263 340/360/263 343/361/263
f 344/362/264 345/363/264 340/364/264 349/365/264
f 343/354/265 340/366/265 345/350/265 351/349/265
f 347/367/266 342/368/266 345/363/266 344/362/266
f 350/352/267 342/351/267 347/369/267 353/370/267
f 348/371/268 352/358/268 343/361/268 339/372/268
f 346/355/269 351/349/269 350/352/269 341/356/269 363/373/269
f 359/374/270 355/375/270 341/374/270
f 354/376/271 359/374/271 341/374/271 360/376/271
f 354/376/272 360/376/272 362/376/272 361/376/272
f 362/376/273 360/376/273 364/376/273 365/376/273
f 361/376/274 362/376/274 365/376/274
f 360/376/275 341/374/275 363/374/275 364/376/275
f 361/376/276 365/376/276 354/376/276
f 358/377/277 354/376/277 365/376/277 384/378/277
f 367/376/278 348/376/278 368/376/278
f 348/371/279 339/372/279 368/371/279
f 339/376/280 366/376/280 368/376/280
f 366/376/281 367/376/281 368/376/281
f 367/376/282 366/376/282 370/376/282 373/376/282
f 367/376/283 369/376/283 371/376/283
f 348/376/284 367/376/284 371/376/284
f 369/376/285 367/376/285 373/376/285 372/376/285
f 370/376/286 374/376/286 375/376/286
f 374/376/287 373/376/287 375/376/287
f 373/376/288 370/376/288 375/376/288
f 373/376/289 377/376/289 372/376/289
f 373/376/290 374/376/290 377/376/290
f 364/376/291 363/374/291 346/374/291 378/376/291
f 339/353/292 346/355/292 378/355/292 376/353/292
f 364/376/293 378/376/293 379/376/293
f 339/353/294 376/353/294 366/376/294
f 376/353/295 378/376/295 379/376/295
f 364/376/296 379/376/296 380/376/296
f 379/376/297 376/353/297 380/376/297
f 376/353/298 380/376/298 366/376/298
f 364/376/299 380/376/299 382/376/299 381/376/299
f 365/376/300 364/376/300 381/376/300 383/376/300
f 384/378/301 365/376/301 383/376/301
f 382/376/302 383/376/302 385/376/302
f 383/376/303 381/376/303 385/376/303
f 381/376/304 382/376/304 385/376/304
f 380/376/305 382/376/305 386/376/305
f 366/376/306 380/376/306 386/376/306
f 382/376/307 370/376/307 386/376/307
f 370/376/308 366/376/308 386/376/308
f 374/376/309 370/376/309 387/376/309 388/376/309
f 387/376/310 370/376/310 382/376/310 389/376/310
f 384/378/311 383/376/311 382/376/311 389/376/311
f 356/379/312 358/380/312 391/381/312 390/382/312 392/383/312
f 384/378/313 389/376/313 391/377/313 358/377/313
f 388/376/314 387/376/314 391/377/314 390/354/314
f 389/376/315 391/377/315 387/376/315
f 393/384/316 350/352/316 353/370/316
f 341/356/317 398/357/317 395/356/317
f 395/385/318 396/384/318 397/356/318
f 395/385/319 398/357/319 393/384/319 396/384/319
f 395/385/320 397/356/320 341/356/320
f 398/357/321 350/352/321 393/384/321
f 396/384/322 393/384/322 394/376/322
f 393/384/323 353/370/323 394/376/323
f 355/375/324 399/376/324 397/356/324 341/356/324
f 396/384/325 399/376/325 397/356/325
f 357/361/326 399/376/326 355/375/326
f 394/376/327 357/361/327 399/376/327 396/384/327
f 412/349/328 411/352/328 403/351/328 406/350/328
f 400/353/329 407/355/329 412/349/329 404/354/329
f 402/356/330 457/357/330 411/352/330
f 413/358/331 404/361/331 401/360/331 410/359/331
f 405/362/332 410/365/332 401/364/332 406/363/332
f 404/354/333 412/349/333 406/350/333 401/366/333
f 408/367/334 405/362/334 406/363/334 403/368/334
f 411/352/335 414/370/335 408/369/335 403/351/335
f 409/371/336 400/372/336 404/361/336 413/358/336
f 407/355/337 422/373/337 402/356/337 411/352/337 412/349/337
f 418/374/338 402/374/338 416/375/338
f 415/376/339 419/376/339 402/374/339 418/374/339
f 415/376/340 420/376/340 421/376/340 419/376/340
f 421/376/341 424/376/341 423/376/341 419/376/341
f 420/376/342 424/376/342 421/376/342
f 419/376/343 423/376/343 422/374/343 402/374/343
f 420/376/344 415/376/344 424/376/344
f 417/377/345 443/378/345 424/376/345 415/376/345
f 426/376/346 427/376/346 409/376/346
f 409/371/347 427/371/347 400/372/347
f 400/376/348 427/376/348 425/376/348
f 425/376/349 427/376/349 426/376/349
f 426/376/350 432/376/350 429/376/350 425/376/350
f 426/376/351 430/376/351 428/376/351
f 409/376/352 430/376/352 426/376/352
f 428/376/353 431/376/353 432/376/353 426/376/353
f 429/376/354 434/376/354 433/376/354
f 433/376/355 434/376/355 432/376/355
f 432/376/356 434/376/356 429/376/356
f 432/376/357 431/376/357 436/376/357
f 432/376/358 436/376/358 433/376/358
f 423/376/359 437/376/359 407/374/359 422/374/359
f 400/353/360 435/353/360 437/355/360 407/355/360
f 423/376/361 438/376/361 437/376/361
f 400/353/362 425/376/362 435/353/362
f 435/353/363 438/376/363 437/376/363
f 423/376/364 439/376/364 438/376/364
f 438/376/365 439/376/365 435/353/365
f 435/353/366 425/376/366 439/376/366
f 423/376/367 440/376/367 441/376/367 439/376/367
f 424/376/368 442/376/368 440/376/368 423/376/368
f 443/378/369 442/376/369 424/376/369
f 441/376/370 444/376/370 442/376/370
f 442/376/371 444/376/371 440/376/371
f 440/376/372 444/376/372 441/376/372
f 439/376/373 445/376/373 441/376/373
f 425/376/374 445/376/374 439/376/374
f 441/376/375 445/376/375 429/376/375
f 429/376/376 445/376/376 425/376/376
f 433/376/377 447/376/377 446/376/377 429/376/377
f 446/376/378 448/376/378 441/376/378 429/376/378
f 443/378/379 448/376/379 441/376/379 442/376/379
f 356/379/380 451/386/380 449/387/380 450/388/380 417/389/380
f 443/378/381 417/377/381 450/377/381 448/376/381
f 447/376/382 449/354/382 450/377/382 446/376/382
f 448/376/383 446/376/383 450/377/383
f 452/384/384 414/370/384 411/352/384
f 402/356/385 454/356/385 457/357/385
f 454/385/386 456/356/386 455/384/386
f 454/385/387 455/384/387 452/384/387 457/357/387
f 454/385/388 402/356/388 456/356/388
f 457/357/389 452/384/389 411/352/389
f 455/384/390 453/376/390 452/384/390
f 452/384/391 453/376/391 414/370/391
f 416/375/392 402/356/392 456/356/392 458/376/392
f 455/384/393 456/356/393 458/376/393
f 357/361/394 416/375/394 458/376/394
f 453/376/395 455/384/395 458/376/395 357/361/395
o Cube
v -0.162327 0.155457 0.057002
v -0.191547 0.048647 0.139080
v -0.147052 0.138242 0.016266
v -0.275464 0.277103 0.304090
v -0.142996 0.020033 0.015349
v -0.130954 0.213322 -0.014129
v -0.177497 0.139396 0.095921
v -0.187601 0.152897 0.117541
v -0.234573 0.122976 0.230639
v -0.243515 0.128440 0.250406
v -0.180773 0.193496 0.095692
v -0.221931 0.180782 0.192254
v -0.198869 0.208320 0.134767
v -0.273573 0.288609 0.304530
v -0.185034 0.158766 0.046106
v -0.214254 0.051956 0.128184
v -0.169759 0.141551 0.005369
v -0.283884 0.275693 0.300238
v -0.165703 0.023342 0.004453
v -0.153661 0.216631 -0.025025
v -0.200204 0.142705 0.085024
v -0.210308 0.156206 0.106645
v -0.257280 0.126285 0.219743
v -0.266222 0.131749 0.239510
v -0.203480 0.196805 0.084795
v -0.244638 0.184092 0.181358
v -0.221576 0.211630 0.123871
v -0.281993 0.287199 0.300678
v -0.167645 0.001524 0.116768
v -0.154156 0.274488 0.068550
v -0.167645 0.001524 -0.241419
v -0.154156 0.274489 -0.049471
v -0.010428 0.001524 0.116768
v -0.023916 0.274488 0.068550
v -0.010428 0.001524 -0.241419
v -0.023916 0.274489 -0.049471
v -0.167645 0.080607 0.111680
v -0.167645 0.080607 -0.241419
v -0.010428 0.080607 -0.241419
v -0.010428 0.080607 0.111680
v -0.154156 0.210758 0.066827
v -0.154156 0.210758 -0.048392
v -0.023916 0.210758 -0.048392
v -0.023916 0.210758 0.066827
v 0.162327 0.155457 0.057002
v 0.191547 0.048647 0.139080
v 0.147052 0.138242 0.016266
v 0.275464 0.277103 0.304090
v 0.142996 0.020033 0.015349
v 0.130954 0.213322 -0.014129
v 0.177497 0.139396 0.095921
v 0.187601 0.152897 0.117541
v 0.234573 0.122976 0.230639
v 0.243515 0.128440 0.250406
v 0.180773 0.193496 0.095692
v 0.221931 0.180782 0.192254
v 0.198869 0.208320 0.134767
v 0.273573 0.288609 0.304530
v 0.185034 0.158766 0.046106
v 0.214254 0.051956 0.128184
v 0.169759 0.141551 0.005369
v 0.283884 0.275693 0.300238
v 0.165703 0.023342 0.004453
v 0.153661 0.216631 -0.025025
v 0.200204 0.142705 0.085024
v 0.210308 0.156206 0.106645
v 0.257280 0.126285 0.219743
v 0.266222 0.131749 0.239510
v 0.203480 0.196805 0.084795
v 0.244637 0.184092 0.181358
v 0.221576 0.211630 0.123871
v 0.281993 0.287199 0.300678
v 0.167645 0.001524 0.116768
v 0.154156 0.274488 0.068550
v 0.167645 0.001524 -0.241419
v 0.154156 0.274489 -0.049471
v 0.010428 0.001524 0.116768
v 0.023916 0.274488 0.068550
v 0.010428 0.001524 -0.241419
v 0.023916 0.274489 -0.049471
v 0.167645 0.080607 0.111680
v 0.167645 0.080607 -0.241419
v 0.010428 0.080607 -0.241419
v 0.010428 0.080607 0.111680
v 0.154156 0.210758 0.066827
v 0.154156 0.210758 -0.048392
v 0.023916 0.210758 -0.048392
v 0.023916 0.210758 0.066827
vn 0.9123 0.0020 0.4095
vn -0.9134 0.0502 -0.4040
vn -0.2199 -0.9612 0.1663
vn -0.0151 -0.9651 -0.2616
vn -0.3144 -0.8642 0.3927
vn 0.0409 -0.9291 -0.3675
vn -0.2584 0.6321 0.7305
vn 0.4075 -0.1624 -0.8986
vn -0.4205 0.0344 0.9066
vn -0.4351 -0.0219 0.9001
vn 0.1434 -0.8235 -0.5488
vn -0.0435 0.9271 0.3722
vn -0.0675 -0.9851 -0.1585
vn -0.0642 0.9098 0.4101
vn -0.1919 -0.9395 0.2839
vn 0.1371 0.9770 -0.1635
vn -1.0000 -0.0000 -0.0000
vn -0.0000 -0.0169 -0.9999
vn 1.0000 -0.0000 -0.0000
vn -0.0000 -0.0270 0.9996
vn -0.0000 -1.0000 -0.0000
vn -0.0000 1.0000 -0.0000
vn -0.0000 0.0642 0.9979
vn -0.0000 -0.0000 -1.0000
vn -0.0000 0.3258 0.9454
vn 0.9947 0.1031 -0.0000
vn -0.0000 0.8291 -0.5591
vn -0.9947 0.1031 -0.0000
vn -0.9123 0.0020 0.4095
vn 0.9134 0.0502 -0.4040
vn 0.2199 -0.9612 0.1663
vn 0.0151 -0.9651 -0.2616
vn 0.3144 -0.8642 0.3927
vn -0.0409 -0.9291 -0.3675
vn 0.2584 0.6321 0.7305
vn -0.4075 -0.1624 -0.8986
vn 0.4205 0.0344 0.9066
vn 0.4351 -0.0219 0.9001
vn -0.1434 -0.8235 -0.5488
vn 0.0435 0.9271 0.3722
vn 0.0675 -0.9851 -0.1585
vn 0.0642 0.9098 0.4101
vn 0.1919 -0.9395 0.2839
vn -0.1371 0.9770 -0.1635
vt 0.494631 0.044606
vt 0.983210 0.167729
vt 0.326171 0.919560
vt 0.305388 0.897753
vt 0.717736 0.326737
vt 0.319112 0.653967
vt 0.564428 0.359363
vt 0.018378 0.658258
vt 0.035326 0.611780
vt 0.371715 0.391911
vt 0.382455 0.348513
vt 0.534868 0.247759
vt 0.226348 0.280828
vt 0.699022 0.121638
vt 0.466564 0.032469
vt 0.655870 0.138931
vt 0.246395 0.273536
vt 0.536611 0.236207
vt 0.375757 0.353905
vt 0.369684 0.419367
vt 0.017372 0.634927
vt 0.024762 0.652800
vt 0.602189 0.346671
vt 0.314531 0.669146
vt 0.702539 0.370665
vt 0.388729 0.848135
vt 0.327397 0.911879
vt 0.949841 0.224849
vt 0.621094 0.746094
vt 0.623047 0.748047
vt 0.617188 0.742188
vt 0.609375 0.734375
vt 0.593750 0.718750
vt 0.562500 0.687500
vt 0.625000 0.500000
vt 0.375000 0.500000
vt 0.625000 0.750000
vt 0.625000 0.625000
vt 0.500000 0.625000
vt 0.624023 0.749023
vt 0.624512 0.749512
vt 0.624756 0.749756
vt 0.581776 0.000000
vt 0.625000 0.000000
vt 0.625000 0.250000
vt 0.581776 0.250000
vt 0.789109 0.788274
vt 0.764929 0.941926
vt 0.238364 0.959388
vt 0.202094 0.788274
vt 0.581776 0.500000
vt 0.581776 0.750000
vt 0.625000 1.000000
vt 0.581776 1.000000
vt 0.125000 0.500000
vt 0.375000 0.750000
vt 0.125000 0.750000
vt 0.875000 0.500000
vt 0.875000 0.750000
vt 0.270600 0.044721
vt 0.364119 0.083391
vt 0.247021 0.205443
vt 0.153502 0.166774
vt 0.447430 0.500000
vt 0.447430 0.750000
vt 0.697403 0.179831
vt 0.594822 0.212360
vt 0.496319 0.078479
vt 0.598900 0.045951
vt 0.702615 0.254536
vt 0.620600 0.270298
vt 0.551543 0.159686
vt 0.631681 0.140540
vt 0.447430 1.000000
vt 0.947697 0.913359
vt 0.956816 0.913359
vt 0.956816 0.930329
vt 0.947697 0.930329
vt 0.681057 0.074292
vt 0.822119 0.781273
vt 0.110748 0.786035
vt 0.186524 0.074292
vt 0.168783 0.120188
vt 0.170725 0.120188
vt 0.170725 0.123802
vt 0.168783 0.123802
s 0
f 463/390/396 464/391/396 472/392/396 462/393/396 471/394/396 470/395/396 469/396/396 468/397/396 467/398/396 466/399/396 465/400/396 459/401/396 460/402/396 461/403/396
f 477/404/397 475/405/397 474/406/397 473/407/397 479/408/397 480/409/397 481/410/397 482/411/397 483/412/397 484/413/397 485/414/397 476/415/397 486/416/397 478/417/397
f 467/418/398 468/419/398 482/419/398 481/418/398
f 466/420/399 467/418/399 481/418/399 480/420/399
f 465/421/400 466/420/400 480/420/400 479/421/400
f 459/422/401 465/421/401 479/421/401 473/422/401
f 460/423/402 459/422/402 473/422/402 474/423/402
f 464/424/403 463/425/403 477/425/403 478/424/403
f 462/426/404 472/427/404 486/427/404 476/426/404
f 463/425/405 461/428/405 475/428/405 477/425/405
f 461/428/406 460/423/406 474/423/406 475/428/406
f 468/419/407 469/429/407 483/429/407 482/419/407
f 469/429/408 470/430/408 484/430/408 483/429/408
f 470/430/409 471/431/409 485/431/409 484/430/409
f 471/431/410 462/426/410 476/426/410 485/431/410
f 472/427/411 464/424/411 478/424/411 486/427/411
f 499/432/412 488/433/412 490/434/412 500/435/412
f 500/436/413 490/437/413 494/438/413 501/439/413
f 501/440/414 494/424/414 492/426/414 502/441/414
f 502/441/415 492/426/415 488/442/415 499/443/415
f 489/444/416 493/425/416 491/445/416 487/446/416
f 494/424/417 490/447/417 488/448/417 492/426/417
f 491/449/418 498/450/418 495/451/418 487/452/418
f 493/425/414 497/453/414 498/454/414 491/445/414
f 489/455/419 496/456/419 497/457/419 493/458/419
f 487/459/412 495/460/412 496/461/412 489/462/412
f 498/454/420 502/441/420 499/443/420 495/463/420
f 497/464/421 501/465/421 502/466/421 498/467/421
f 496/468/422 500/469/422 501/470/422 497/471/422
f 495/472/423 499/473/423 500/474/423 496/475/423
f 507/390/424 505/403/424 504/402/424 503/401/424 509/400/424 510/399/424 511/398/424 512/397/424 513/396/424 514/395/424 515/394/424 506/393/424 516/392/424 508/391/424
f 521/404/425 522/417/425 530/416/425 520/415/425 529/414/425 528/413/425 527/412/425 526/411/425 525/410/425 524/409/425 523/408/425 517/407/425 518/406/425 519/405/425
f 511/418/426 525/418/426 526/419/426 512/419/426
f 510/420/427 524/420/427 525/418/427 511/418/427
f 509/421/428 523/421/428 524/420/428 510/420/428
f 503/422/429 517/422/429 523/421/429 509/421/429
f 504/423/430 518/423/430 517/422/430 503/422/430
f 508/424/431 522/424/431 521/425/431 507/425/431
f 506/426/432 520/426/432 530/427/432 516/427/432
f 507/425/433 521/425/433 519/428/433 505/428/433
f 505/428/434 519/428/434 518/423/434 504/423/434
f 512/419/435 526/419/435 527/429/435 513/429/435
f 513/429/436 527/429/436 528/430/436 514/430/436
f 514/430/437 528/430/437 529/431/437 515/431/437
f 515/431/438 529/431/438 520/426/438 506/426/438
f 516/427/439 530/427/439 522/424/439 508/424/439
f 543/432/414 544/435/414 534/434/414 532/433/414
f 544/436/413 545/439/413 538/438/413 534/437/413
f 545/440/412 546/441/412 536/426/412 538/424/412
f 546/441/415 543/443/415 532/442/415 536/426/415
f 533/444/416 531/446/416 535/445/416 537/425/416
f 538/424/417 536/426/417 532/448/417 534/447/417
f 535/449/418 531/452/418 539/451/418 542/450/418
f 537/425/412 535/445/412 542/454/412 541/453/412
f 533/455/419 537/458/419 541/457/419 540/456/419
f 531/459/414 533/462/414 540/461/414 539/460/414
f 542/454/420 539/463/420 543/443/420 546/441/420
f 541/464/423 542/467/423 546/466/423 545/465/423
f 540/468/422 541/471/422 545/470/422 544/469/422
f 539/472/421 540/475/421 544/474/421 543/473/421
o head.001
v -0.132072 1.689186 -0.077154
v -0.121912 1.859544 -0.077079
v -0.000047 1.613814 0.008330
v 0.001219 1.868349 -0.162599
v 0.003359 1.601537 -0.144659
v -0.072648 1.655330 -0.005877
v 0.003083 1.689308 -0.170448
v 0.002035 1.749795 -0.148377
v -0.019635 1.701276 -0.161977
v 0.003165 1.704647 -0.181018
v 0.001385 1.850736 -0.162580
v -0.144121 1.836410 -0.083116
v -0.069854 1.634888 -0.098017
v 0.003151 1.655930 -0.158939
v 0.134080 1.691705 -0.071431
v 0.120705 1.861841 -0.071862
v 0.072299 1.656702 -0.002760
v 0.025185 1.701701 -0.161013
v 0.143586 1.839134 -0.076930
v 0.073855 1.636248 -0.094927
vn 0.5467 0.3052 0.7798
vn 0.5179 0.4835 0.7057
vn 0.4524 0.0952 0.8867
vn 0.5688 -0.4475 0.6901
vn 0.6096 -0.4544 0.6495
vn 0.5088 0.4437 0.7377
vn 0.5064 -0.3877 0.7702
vn 0.6205 0.7694 -0.1519
vn 0.4349 0.8939 -0.1083
vn 0.5910 0.2070 0.7797
vn -0.5854 0.2945 0.7554
vn -0.5568 0.4734 0.6826
vn -0.4918 0.0863 0.8664
vn -0.5893 -0.4584 0.6652
vn -0.6283 -0.4661 0.6229
vn -0.5484 0.4337 0.7150
vn -0.5316 -0.3975 0.7479
vn -0.6278 0.7575 -0.1787
vn -0.4467 0.8856 -0.1273
vn -0.6278 0.1954 0.7535
vt 0.212069 0.349544
vt 0.180740 0.184472
vt 0.139021 0.245901
vt 0.139021 0.346364
vt 0.139021 0.332552
vt 0.139021 0.380186
vt 0.151709 0.370332
vt 0.214365 0.335831
vt 0.139021 0.520223
vt 0.139021 0.843408
vt 0.220467 0.802960
vt 0.217985 0.802436
vt 0.139021 0.841652
vt 0.139021 0.894653
vt 0.205609 0.871392
vt 0.979499 0.788983
vt 0.979469 0.787035
vt 0.982397 0.792281
vt 0.976033 0.783785
vt 0.976033 0.784946
vt 0.139021 0.082195
vt 0.065973 0.349544
vt 0.097301 0.184472
vt 0.126333 0.370332
vt 0.063677 0.335831
vt 0.057575 0.802960
vt 0.060057 0.802436
vt 0.072432 0.871392
vt 0.972567 0.788983
vt 0.969669 0.792281
vt 0.972597 0.787035
s 0
f 547/476/440 559/477/440 560/478/440 553/479/440
f 553/480/441 556/481/441 555/482/441
f 547/483/442 554/484/442 557/485/442 558/486/442
f 555/482/443 554/484/443 547/483/443
f 555/482/444 556/481/444 554/484/444
f 547/483/445 553/480/445 555/482/445
f 558/487/446 557/488/446 550/489/446 548/490/446
f 552/491/447 559/492/447 547/493/447
f 551/494/448 559/492/448 552/491/448 549/495/448
f 560/478/449 559/477/449 551/496/449
f 561/497/450 553/479/450 560/478/450 566/498/450
f 553/480/451 564/499/451 556/481/451
f 561/500/452 565/501/452 557/485/452 554/484/452
f 564/499/453 561/500/453 554/484/453
f 564/499/454 554/484/454 556/481/454
f 561/500/455 564/499/455 553/480/455
f 565/502/456 562/503/456 550/489/456 557/488/456
f 563/504/457 561/505/457 566/506/457
f 551/494/458 549/495/458 563/504/458 566/506/458
f 560/478/459 551/496/459 566/498/459
