# Blender 5.0.0
# www.blender.org
mtllib yohan.mtl
o torso.001
v -0.169174 1.204667 0.135106
v -0.183025 1.566918 0.130533
v -0.156988 1.204667 -0.135106
v -0.159892 1.575762 -0.129387
v -0.182733 1.756216 0.117011
v -0.181727 1.753144 -0.098636
v -0.051222 1.775203 0.050922
v -0.050859 1.775203 -0.022279
v -0.249408 1.717160 0.089634
v -0.248657 1.717165 -0.071877
v -0.189413 1.476111 0.000799
v -0.197161 1.557954 -0.066746
v -0.000000 1.204667 -0.142944
v 0.000414 1.575905 -0.140947
v 0.000000 1.204667 0.135106
v 0.000000 1.566918 0.130533
v -0.053587 1.753226 -0.098046
v -0.000771 1.745136 0.117859
v -0.000534 1.775276 0.051173
v -0.202128 1.559606 0.068508
v -0.186133 1.207277 -0.000000
v -0.170813 1.407821 0.132819
v -0.158628 1.412314 -0.132020
v 0.000000 1.407821 0.132819
v -0.000000 1.412314 -0.139859
v -0.187773 1.398201 0.000400
v -0.157333 1.239107 -0.134456
v 0.000000 1.238161 0.134624
v -0.000000 1.239107 -0.142295
v -0.186479 1.238746 0.000084
v -0.169519 1.238161 0.134624
v 0.000324 1.674281 -0.113365
v 0.000413 1.598530 -0.136666
v -0.000627 1.764044 0.076024
v -0.118526 1.754743 -0.098345
v -0.107436 1.766992 -0.055304
v -0.191963 1.207236 -0.000258
v -0.174217 1.204691 0.140885
v -0.000000 1.204768 -0.148703
v -0.161538 1.204724 -0.141129
v 0.000000 1.204739 0.140858
v 0.000000 1.238233 0.140376
v -0.174599 1.238185 0.140372
v -0.161927 1.239164 -0.140448
v -0.000000 1.239208 -0.148053
v -0.192308 1.238705 -0.000172
v -0.025820 1.775240 0.039315
v 0.169174 1.204667 0.135106
v 0.183025 1.566918 0.130533
v 0.156988 1.204667 -0.135106
v 0.160638 1.576048 -0.128479
v 0.181159 1.756713 0.118707
v 0.182165 1.753635 -0.096961
v 0.050153 1.775350 0.051424
v 0.050516 1.775350 -0.021776
v 0.248192 1.717840 0.091952
v 0.248943 1.717837 -0.069586
v 0.189413 1.476111 0.000799
v 0.197307 1.558100 -0.066402
v 0.054025 1.753371 -0.097551
v 0.202128 1.559606 0.068508
v 0.186133 1.207277 -0.000000
v 0.170813 1.407821 0.132819
v 0.158628 1.412314 -0.132020
v 0.187773 1.398201 0.000400
v 0.157333 1.239107 -0.134456
v 0.186479 1.238746 0.000084
v 0.169519 1.238161 0.134624
v 0.118960 1.755064 -0.097252
v 0.107441 1.767295 -0.054272
v 0.191963 1.207236 -0.000258
v 0.174217 1.204691 0.140885
v 0.161538 1.204724 -0.141129
v 0.174599 1.238185 0.140372
v 0.161927 1.239164 -0.140448
v 0.192308 1.238705 -0.000172
v 0.024868 1.775313 0.039566
vn -0.0000 -0.0144 -0.9999
vn 0.9983 0.0023 0.0582
vn 0.0523 -0.1823 0.9819
vn 0.0015 -1.0000 -0.0000
vn 0.1584 -0.9874 0.0074
vn -0.0237 -0.9599 0.2793
vn 0.4896 -0.8719 0.0094
vn 0.6259 0.0773 0.7760
vn 0.6673 0.5106 0.5422
vn -0.0459 -0.9237 -0.3803
vn 0.0002 -0.0711 -0.9975
vn 0.0074 1.0000 0.0003
vn 0.0607 -0.0046 0.9981
vn 0.8679 0.3858 -0.3128
vn 0.9923 0.0571 -0.1102
vn 0.9920 0.0072 -0.1263
vn 0.0496 -0.0139 0.9987
vn -0.0000 -0.0106 -0.9999
vn 0.9751 0.0089 0.2217
vn 0.9769 0.0058 0.2136
vn 0.0001 -1.0000 0.0084
vn 0.0003 -1.0000 -0.0029
vn -0.0001 1.0000 -0.0084
vn -0.0004 -1.0000 -0.0040
vn 0.0231 -0.9631 0.2681
vn 0.0034 -0.9112 -0.4118
vn 0.1432 -0.9897 0.0007
vn -0.0538 -0.2595 0.9642
vn -0.0001 -0.0148 -0.9999
vn 0.9921 0.0103 -0.1248
vn 0.9774 0.0084 0.2113
vn 0.0469 -0.0190 0.9987
vn 0.0005 0.9999 0.0133
vn -1.0000 -0.0000 -0.0000
vn 0.0075 0.9998 0.0177
vn 0.0113 0.9998 -0.0161
vn -0.0005 -0.9999 -0.0132
vn 0.6884 0.1090 -0.7171
vn -0.9986 -0.0009 0.0532
vn -0.0586 -0.1845 0.9811
vn 0.0014 -1.0000 -0.0000
vn -0.1558 -0.9878 0.0060
vn 0.0237 -0.9598 0.2795
vn -0.4873 -0.8732 0.0049
vn -0.6308 0.0719 0.7726
vn -0.6688 0.5088 0.5421
vn 0.0520 -0.9235 -0.3801
vn 0.0044 -0.0664 -0.9978
vn -0.0074 1.0000 0.0003
vn -0.0636 -0.0070 0.9980
vn -0.8679 0.3858 -0.3128
vn -0.9923 0.0571 -0.1102
vn -0.9920 0.0072 -0.1263
vn -0.0496 -0.0139 0.9987
vn -0.9753 0.0111 0.2207
vn -0.9769 0.0058 0.2136
vn -0.0001 -1.0000 0.0084
vn -0.0003 -1.0000 -0.0029
vn 0.0001 1.0000 -0.0084
vn 0.0004 -1.0000 -0.0040
vn -0.0230 -0.9632 0.2679
vn -0.1405 -0.9901 -0.0007
vn 0.0457 -0.2595 0.9647
vn 0.0001 -0.0148 -0.9999
vn -0.9921 0.0103 -0.1248
vn -0.9774 0.0084 0.2113
vn -0.0469 -0.0190 0.9987
vn -0.0005 0.9999 0.0133
vn -0.0075 0.9998 0.0177
vn -0.0113 0.9998 -0.0161
vn 0.0005 -0.9999 -0.0132
vn -0.6838 0.1109 -0.7212
vt 0.850916 0.041714
vt 0.835068 0.041774
vt 0.835127 0.105169
vt 0.850976 0.105110
vt 0.930220 0.104813
vt 0.961918 0.104694
vt 0.946069 0.104753
vt 0.790632 0.202092
vt 0.790632 0.221876
vt 0.825530 0.345988
vt 0.859495 0.345988
vt 0.868393 0.202092
vt 0.984485 0.338411
vt 0.949314 0.408751
vt 0.914144 0.479092
vt 0.984485 0.479092
vt 0.790632 0.345988
vt 0.790632 0.425721
vt 0.820406 0.391247
vt 0.000000 0.000000
vt 0.562442 0.338411
vt 0.562442 0.408751
vt 0.562442 0.479092
vt 0.632782 0.479092
vt 0.632782 0.338411
vt 0.858864 0.079933
vt 0.790632 0.079933
vt 0.754255 0.256752
vt 0.835021 -0.008275
vt 0.602823 0.376752
vt 0.851340 -0.016509
vt 0.790632 -0.016509
vt 0.850869 -0.008335
vt 0.790632 0.274040
s 0
usemtl vest
f 24/1/1 22/2/1 2/3/1 16/4/1
f 4/5/2 6/5/2 5/6/2 2/6/2 11/7/2
f 17/17/6 8/18/6 36/19/6 35/10/6
f 10/20/8 12/20/8 4/20/8 6/20/8
f 5/3/10 7/3/10 34/4/10 18/4/10
f 2/3/11 5/3/11 18/4/11 16/4/11
f 23/26/13 25/27/13 14/8/13 4/12/13
f 28/33/18 31/29/18 22/2/18 24/1/18
f 38/23/29 43/29/29 42/33/29 41/24/29
f 37/22/30 46/30/30 43/29/30 38/23/30
f 37/22/31 40/21/31 44/31/31 46/30/31
f 39/25/32 45/32/32 44/31/32 40/21/32
f 15/20/34 41/20/34 42/20/34 28/20/34
f 29/20/34 45/20/34 39/20/34 13/20/34
f 9/6/38 5/6/38 2/6/38 20/20/38
f 24/1/1 16/4/1 49/3/1 63/2/1
f 51/5/39 58/7/39 49/6/39 52/6/39 53/5/39
f 60/17/43 69/10/43 70/19/43 55/18/43
f 57/20/45 53/20/45 51/20/45 59/20/45
f 52/3/47 18/4/47 34/4/47 54/3/47
f 49/3/48 16/4/48 18/4/48 52/3/48
f 64/26/50 51/12/50 14/8/50 25/27/50
f 28/33/18 24/1/18 63/2/18 68/29/18
f 72/23/64 41/24/64 42/33/64 74/29/64
f 71/22/65 72/23/65 74/29/65 76/30/65
f 71/22/66 76/30/66 75/31/66 73/21/66
f 39/25/67 73/21/67 75/31/67 45/32/67
f 56/6/72 61/20/72 49/6/72 52/6/72
usemtl vestShadow
f 3/21/12 21/22/12 1/23/12 15/24/12 13/25/12
f 1/23/23 38/23/23 41/24/23 15/24/23
f 13/25/33 39/25/33 40/21/33 3/21/33
f 21/22/35 37/22/35 38/23/35 1/23/35
f 3/21/36 40/21/36 37/22/36 21/22/36
f 50/21/49 13/25/49 15/24/49 48/23/49 62/22/49
f 48/23/59 15/24/59 41/24/59 72/23/59
f 13/25/68 50/21/68 73/21/68 39/25/68
f 62/22/69 48/23/69 72/23/69 71/22/69
f 50/21/70 62/22/70 71/22/70 73/21/70
usemtl vestShadow1
f 8/13/4 47/14/4 19/15/4 7/16/4
f 22/2/15 26/28/15 11/7/15 2/3/15
f 31/29/16 30/30/16 26/28/16 22/2/16
f 4/12/19 11/7/19 26/28/19 23/26/19
f 23/26/20 26/28/20 30/30/20 27/31/20
f 7/3/26 19/4/26 34/4/26
f 36/5/27 8/5/27 7/6/27
f 55/13/41 54/16/41 19/15/41 77/14/41
f 63/2/52 49/3/52 58/7/52 65/28/52
f 68/29/53 63/2/53 65/28/53 67/30/53
f 51/12/55 64/26/55 65/28/55 58/7/55
f 64/26/56 66/31/56 67/30/56 65/28/56
f 54/3/26 34/4/26 19/4/26
f 70/5/62 54/6/62 55/5/62
usemtl vestLight
f 14/8/3 33/9/3 35/10/3 6/11/3 4/12/3
f 6/5/5 36/5/5 7/6/5 5/6/5
f 5/6/7 9/6/7 10/5/7 6/5/7
f 28/33/21 42/33/21 43/29/21 31/29/21
f 30/30/22 46/30/22 44/31/22 27/31/22
f 31/29/24 43/29/24 46/30/24 30/30/24
f 36/19/25 6/11/25 35/10/25
f 27/31/37 44/31/37 45/32/37 29/32/37
f 14/8/40 51/12/40 53/11/40 69/10/40 33/9/40
f 53/5/42 52/6/42 54/6/42 70/5/42
f 52/6/44 53/5/44 57/5/44 56/6/44
f 28/33/57 68/29/57 74/29/57 42/33/57
f 67/30/58 66/31/58 75/31/58 76/30/58
f 68/29/60 67/30/60 76/30/60 74/29/60
f 70/19/61 69/10/61 53/11/61
f 66/31/71 29/32/71 45/32/71 75/31/71
usemtl vestShadow2
f 4/5/9 12/20/9 11/7/9
f 2/6/14 11/7/14 20/20/14
f 51/5/46 58/7/46 59/20/46
f 49/6/51 61/20/51 58/7/51
usemtl vestCollar
f 27/31/17 29/32/17 25/27/17 23/26/17
f 33/9/28 32/34/28 17/17/28 35/10/28
f 66/31/54 64/26/54 25/27/54 29/32/54
f 33/9/63 69/10/63 60/17/63 32/34/63
o arm.001
v -0.475414 1.266507 0.074149
v -0.554088 1.363999 0.074149
v -0.475414 1.266508 -0.060016
v -0.554088 1.363999 -0.060016
v -0.094869 1.701876 0.075163
v -0.204412 1.733670 0.075163
v -0.094869 1.701876 -0.061030
v -0.204413 1.733670 -0.061030
v -0.434501 1.312955 -0.060016
v -0.513422 1.404596 -0.060016
v -0.434501 1.312955 0.074149
v -0.513422 1.404596 0.074149
v -0.510061 1.386941 -0.048655
v -0.453800 1.312452 0.070646
v -0.453800 1.312452 -0.048656
v -0.510061 1.386941 0.070646
v -0.340913 1.580491 -0.055469
v -0.264628 1.522727 0.069602
v -0.264628 1.522727 -0.055469
v -0.340913 1.580491 0.069602
v -0.286629 1.495657 -0.058163
v -0.362341 1.560442 0.072297
v -0.362341 1.560442 -0.058163
v -0.286629 1.495657 0.072297
v -0.351272 1.570568 -0.056816
v -0.275628 1.509192 0.070949
v -0.275628 1.509192 -0.056816
v -0.351272 1.570568 0.070950
v 0.475414 1.266508 0.074149
v 0.554088 1.363999 0.074149
v 0.475414 1.266508 -0.060016
v 0.554088 1.363999 -0.060016
v 0.094869 1.701875 0.075163
v 0.204413 1.733670 0.075163
v 0.094869 1.701875 -0.061030
v 0.204413 1.733669 -0.061030
v 0.434502 1.312956 -0.060016
v 0.513423 1.404596 -0.060016
v 0.434502 1.312956 0.074149
v 0.513423 1.404596 0.074149
v 0.510061 1.386941 -0.048655
v 0.453800 1.312452 0.070646
v 0.453800 1.312452 -0.048656
v 0.510061 1.386941 0.070646
v 0.340913 1.580491 -0.055469
v 0.264628 1.522728 0.069602
v 0.264628 1.522728 -0.055469
v 0.340913 1.580491 0.069603
v 0.286629 1.495657 -0.058163
v 0.362341 1.560443 0.072297
v 0.362341 1.560443 -0.058163
v 0.286629 1.495657 0.072297
v 0.351272 1.570569 -0.056816
v 0.275628 1.509193 0.070950
v 0.275628 1.509193 -0.056816
v 0.351272 1.570569 0.070950
vn 0.7782 0.6280 -0.0000
vn 0.0112 0.0232 0.9997
vn -0.2787 -0.9604 -0.0000
vn -0.0000 -0.0000 -1.0000
vn -0.7259 0.6878 -0.0000
vn 0.7065 -0.7077 -0.0000
vn -0.9824 -0.1870 -0.0000
vn -0.7504 0.6610 -0.0000
vn -0.2189 -0.1781 0.9594
vn -0.0000 -0.0000 1.0000
vn 0.0051 0.0048 -1.0000
vn 0.7614 -0.6483 -0.0000
vn 0.0261 -0.9997 -0.0000
vn -0.5353 -0.4356 -0.7237
vn 0.7466 -0.6653 -0.0000
vn 0.0112 0.0232 -0.9997
vn -0.7760 0.6307 -0.0000
vn -0.0524 -0.0668 0.9964
vn 0.0291 0.0276 0.9992
vn -0.7387 0.6740 -0.0000
vn 0.6750 -0.7378 -0.0000
vn -0.0532 -0.0638 -0.9965
vn -0.0524 -0.0668 -0.9964
vn 0.6917 -0.7221 -0.0000
vn -0.0532 -0.0638 0.9965
vn -0.7782 0.6280 -0.0000
vn -0.0112 0.0232 0.9997
vn 0.2787 -0.9604 -0.0000
vn 0.7259 0.6878 -0.0000
vn -0.7065 -0.7077 -0.0000
vn 0.9824 -0.1870 -0.0000
vn 0.7504 0.6610 -0.0000
vn 0.2189 -0.1781 0.9594
vn -0.0051 0.0048 -1.0000
vn -0.7614 -0.6483 -0.0000
vn -0.0261 -0.9997 -0.0000
vn 0.5353 -0.4356 -0.7236
vn -0.7466 -0.6653 -0.0000
vn -0.0112 0.0232 -0.9997
vn 0.7760 0.6307 -0.0000
vn 0.0524 -0.0668 0.9964
vn -0.0291 0.0276 0.9992
vn 0.7387 0.6740 -0.0000
vn -0.6750 -0.7378 -0.0000
vn 0.0532 -0.0638 -0.9965
vn 0.0524 -0.0668 -0.9964
vn -0.6917 -0.7221 -0.0000
vn 0.0532 -0.0638 0.9965
vt 0.375000 0.000000
vt 0.375000 0.250000
vt 0.625000 0.250000
vt 0.625000 0.000000
vt 0.391540 0.870957
vt 0.365560 0.934893
vt 0.384414 0.945837
vt 0.409719 0.898487
vt 0.497131 0.125795
vt 0.496978 0.077931
vt 0.498433 0.076784
vt 0.498570 0.123425
vt 0.148638 0.566021
vt 0.050175 0.561905
vt 0.058458 0.835103
vt 0.136155 0.838870
vt 0.417550 0.123075
vt 0.417565 0.076129
vt 0.029124 0.291139
vt 0.167935 0.297121
vt 0.136499 0.200056
vt 0.061551 0.196470
vt 0.421261 0.077369
vt 0.421116 0.125527
vt 0.420677 0.799253
vt 0.427194 0.798869
vt 0.439086 0.826486
vt 0.438097 0.845383
vt 0.396783 0.858055
vt 0.414825 0.888931
vt 0.042337 0.502893
vt 0.148996 0.505878
vt 0.132700 0.200860
vt 0.067303 0.198653
vt 0.040956 0.257833
vt 0.162547 0.262012
vt 0.056453 0.761586
vt 0.128666 0.762439
vt 0.145268 0.579450
vt 0.044931 0.576940
vt 0.149894 0.538584
vt 0.049343 0.534448
vt 0.394161 0.864506
vt 0.414464 0.897781
vt 0.048511 0.507012
vt 0.151148 0.511164
vt 0.042994 0.547747
vt 0.148119 0.550464
s 0
usemtl shirtShadow3
f 104/77/90 96/39/90 94/42/90 102/78/90
f 103/77/94 101/63/94 99/64/94 105/78/94
f 98/63/97 104/77/97 102/78/97 100/64/97
f 132/77/113 130/78/113 122/42/113 124/39/113
f 131/77/117 133/78/117 127/64/117 129/63/117
f 126/63/120 128/64/120 130/78/120 132/77/120
usemtl shirtShadow2
f 96/39/74 84/40/74 85/41/74 94/42/74
f 90/53/79 93/54/79 89/55/79 87/56/79
f 80/57/80 78/44/80 88/43/80 86/58/80
f 91/59/81 88/60/81 89/61/81 93/62/81
f 101/63/83 91/59/83 93/62/83 99/64/83
f 86/67/85 88/68/85 91/69/85 92/70/85
f 86/60/86 92/59/86 90/62/86 87/61/86
f 82/40/88 95/39/88 97/42/88 83/41/88
f 92/59/91 98/63/91 100/64/91 90/62/91
f 102/81/93 105/82/93 99/66/93 100/65/93
f 124/39/99 122/42/99 113/41/99 112/40/99
f 118/53/103 115/56/103 117/55/103 121/54/103
f 108/57/104 114/58/104 116/43/104 106/44/104
f 119/59/105 121/62/105 117/61/105 116/60/105
f 129/63/106 127/64/106 121/62/106 119/59/106
f 114/67/108 120/70/108 119/69/108 116/68/108
f 114/60/109 115/61/109 118/62/109 120/59/109
f 110/40/111 111/41/111 125/42/111 123/39/111
f 120/59/114 118/62/114 128/64/114 126/63/114
f 130/81/116 128/65/116 127/66/116 133/82/116
usemtl shirtShadow
f 78/35/73 80/36/73 81/37/73 79/38/73
f 96/47/77 95/48/77 82/49/77 84/50/77
f 104/75/89 103/76/89 95/48/89 96/47/89
f 92/70/92 91/69/92 101/79/92 98/80/92
f 98/80/89 101/79/89 103/76/89 104/75/89
f 106/35/98 107/38/98 109/37/98 108/36/98
f 124/47/101 112/50/101 110/49/101 123/48/101
f 132/75/112 124/47/112 123/48/112 131/76/112
f 120/70/115 126/80/115 129/79/115 119/69/115
f 126/80/112 132/75/112 131/76/112 129/79/112
usemtl whiteShirt
f 84/40/75 82/40/75 83/41/75 85/41/75
f 88/43/76 78/44/76 79/45/76 89/46/76
f 87/51/78 89/46/78 79/45/78 81/52/78
f 80/57/82 86/58/82 87/51/82 81/52/82
f 100/65/84 99/66/84 93/54/84 90/53/84
f 85/71/87 83/72/87 97/73/87 94/74/87
f 95/39/95 103/77/95 105/78/95 97/42/95
f 94/74/96 97/73/96 105/82/96 102/81/96
f 112/40/100 113/41/100 111/41/100 110/40/100
f 116/43/76 117/46/76 107/45/76 106/44/76
f 115/51/102 109/52/102 107/45/102 117/46/102
f 108/57/82 109/52/82 115/51/82 114/58/82
f 128/65/107 118/53/107 121/54/107 127/66/107
f 113/71/110 122/74/110 125/73/110 111/72/110
f 123/39/118 125/42/118 133/78/118 131/77/118
f 122/74/119 130/81/119 133/82/119 125/73/119
o hand.001
v -0.629959 1.294963 0.061420
v -0.520933 1.350054 0.030094
v -0.629959 1.294963 -0.048171
v -0.520933 1.350054 -0.016845
v -0.535186 1.206423 0.061420
v -0.488795 1.315842 0.030094
v -0.535186 1.206423 -0.048171
v -0.488795 1.315842 -0.016845
v -0.621172 1.220222 -0.048171
v -0.621172 1.220222 0.061420
v 0.629959 1.294963 0.061419
v 0.520933 1.350054 0.030094
v 0.629959 1.294963 -0.048171
v 0.520933 1.350054 -0.016845
v 0.535186 1.206423 0.061420
v 0.488795 1.315842 0.030094
v 0.535186 1.206423 -0.048171
v 0.488795 1.315842 -0.016845
v 0.621172 1.220223 -0.048171
v 0.621172 1.220223 0.061420
vn 0.4510 -0.8925 -0.0000
vn -0.1855 -0.1918 0.9637
vn -0.9207 0.3903 -0.0000
vn -0.1855 -0.1918 -0.9637
vn 0.9932 0.1168 -0.0000
vn -0.7288 -0.6847 -0.0000
vn 0.1585 0.9874 -0.0000
vn -0.0000 -0.0000 -1.0000
vn -0.0000 -0.0000 1.0000
vn -0.4510 -0.8925 -0.0000
vn 0.1855 -0.1918 0.9637
vn 0.9207 0.3903 -0.0000
vn 0.1855 -0.1918 -0.9637
vn -0.9932 0.1168 -0.0000
vn 0.7288 -0.6847 -0.0000
vn -0.1585 0.9874 -0.0000
vt 0.878682 0.601081
vt 0.878682 0.652919
vt 0.930520 0.652919
vt 0.930520 0.601081
vt 0.580396 0.912057
vt 0.550235 0.831385
vt 0.525007 0.908678
vt 0.534947 0.939235
vt 0.878682 0.704758
vt 0.878682 0.756596
vt 0.930520 0.756596
vt 0.930520 0.704758
vt 0.554099 0.828523
vt 0.580178 0.926044
vt 0.528604 0.940541
vt 0.520336 0.904092
vt 0.661354 0.996471
vt 0.660294 0.964882
vt 0.613749 0.967462
vt 0.614810 0.999051
vt 0.625000 0.500000
vt 0.625000 0.750000
vt 0.875000 0.750000
vt 0.875000 0.500000
vt 0.613768 0.938570
vt 0.660312 0.935990
vt 0.586905 0.863300
vt 0.582157 0.853715
s 0
usemtl phanta_body
f 134/83/121 136/84/121 137/85/121 135/86/121
f 136/87/122 140/88/122 141/89/122 137/90/122
f 140/91/123 138/92/123 139/93/123 141/94/123
f 138/95/124 134/96/124 135/97/124 139/98/124
f 134/99/125 143/100/125 142/101/125 136/102/125
f 141/103/126 139/104/126 135/105/126 137/106/126
f 140/107/127 142/101/127 143/100/127 138/108/127
f 138/95/128 143/109/128 134/96/128
f 136/87/129 142/110/129 140/88/129
f 144/83/130 145/86/130 147/85/130 146/84/130
f 146/87/131 147/90/131 151/89/131 150/88/131
f 150/91/132 151/94/132 149/93/132 148/92/132
f 148/95/133 149/98/133 145/97/133 144/96/133
f 144/99/134 146/102/134 152/101/134 153/100/134
f 151/103/135 147/106/135 145/105/135 149/104/135
f 150/107/136 148/108/136 153/100/136 152/101/136
f 148/95/128 144/96/128 153/109/128
f 146/87/129 150/88/129 152/110/129
o neck
v -0.000830 1.728274 0.037339
v -0.001487 1.828521 0.037298
v -0.032009 1.728137 -0.019075
v -0.033077 1.828234 -0.019446
v 0.031406 1.728405 -0.018299
v 0.030454 1.828755 -0.018203
vn 0.8744 0.0065 -0.4851
vn -0.0159 0.0012 0.9999
vn -0.8660 -0.0068 -0.5001
vt 0.979733 0.786335
vt 0.977152 0.786335
vt 0.977152 0.794078
vt 0.979733 0.794078
vt 0.974571 0.786335
vt 0.974571 0.794078
vt 0.971990 0.786335
vt 0.971990 0.794078
s 0
usemtl phanta_body
f 154/111/137 156/112/137 157/113/137 155/114/137
f 156/112/138 158/115/138 159/116/138 157/113/138
f 158/115/139 154/117/139 155/118/139 159/116/139
o shoes
v -0.181501 -0.070801 0.111960
v -0.168464 0.193041 0.065353
v -0.181501 -0.070801 -0.234257
v -0.168464 0.193042 -0.048724
v -0.029538 -0.070801 0.111960
v -0.042576 0.193041 0.065353
v -0.029538 -0.070801 -0.234257
v -0.042576 0.193042 -0.048724
v -0.181501 0.005639 0.107042
v -0.181501 0.005639 -0.234257
v -0.029538 0.005639 -0.234257
v -0.029538 0.005639 0.107042
v -0.168464 0.131441 0.063687
v -0.168464 0.131441 -0.047680
v -0.042576 0.131441 -0.047680
v -0.042576 0.131441 0.063687
v 0.181501 -0.070801 0.111960
v 0.168464 0.193041 0.065353
v 0.181501 -0.070801 -0.234257
v 0.168464 0.193042 -0.048724
v 0.029538 -0.070801 0.111960
v 0.042576 0.193041 0.065353
v 0.029538 -0.070801 -0.234257
v 0.042576 0.193042 -0.048724
v 0.181501 0.005639 0.107042
v 0.181501 0.005639 -0.234257
v 0.029538 0.005639 -0.234257
v 0.029538 0.005639 0.107042
v 0.168464 0.131441 0.063687
v 0.168464 0.131441 -0.047680
v 0.042576 0.131441 -0.047680
v 0.042576 0.131441 0.063687
vn 1.0000 -0.0000 -0.0000
vn -0.0000 0.0169 0.9999
vn -1.0000 -0.0000 -0.0000
vn -0.0000 0.0270 -0.9996
vn -0.0000 1.0000 -0.0000
vn -0.0000 -1.0000 -0.0000
vn -0.0000 -0.0642 -0.9979
vn -0.0000 -0.0000 1.0000
vn -0.0000 -0.3258 -0.9454
vn -0.9947 -0.1031 -0.0000
vn -0.0000 -0.8291 0.5591
vn 0.9947 -0.1031 -0.0000
vt 0.581776 0.000000
vt 0.581776 0.250000
vt 0.625000 0.250000
vt 0.625000 0.000000
vt 0.789109 0.788274
vt 0.202094 0.788274
vt 0.238364 0.959388
vt 0.764929 0.941926
vt 0.581776 0.500000
vt 0.581776 0.750000
vt 0.625000 0.750000
vt 0.625000 0.500000
vt 0.581776 1.000000
vt 0.625000 1.000000
vt 0.125000 0.500000
vt 0.125000 0.750000
vt 0.375000 0.750000
vt 0.375000 0.500000
vt 0.875000 0.750000
vt 0.875000 0.500000
vt 0.270600 0.044721
vt 0.153502 0.166774
vt 0.247021 0.205443
vt 0.364119 0.083391
vt 0.447430 0.750000
vt 0.447430 0.500000
vt 0.697403 0.179831
vt 0.598900 0.045951
vt 0.496319 0.078479
vt 0.594822 0.212360
vt 0.702615 0.254536
vt 0.631681 0.140540
vt 0.551543 0.159686
vt 0.620600 0.270298
vt 0.447430 1.000000
vt 0.947697 0.913359
vt 0.947697 0.930329
vt 0.956816 0.930329
vt 0.956816 0.913359
vt 0.681057 0.074292
vt 0.186524 0.074292
vt 0.110748 0.786035
vt 0.822119 0.781273
vt 0.168783 0.120188
vt 0.168783 0.123802
vt 0.170725 0.123802
vt 0.170725 0.120188
s 0
usemtl shirtShadow2
f 172/119/140 173/120/140 163/121/140 161/122/140
f 174/127/142 175/128/142 165/129/142 167/130/142
f 175/128/143 172/131/143 161/132/143 165/129/143
f 167/130/145 165/129/145 161/137/145 163/138/145
f 188/119/142 177/122/142 179/121/142 189/120/142
f 190/127/140 183/130/140 181/129/140 191/128/140
f 191/128/143 181/129/143 177/132/143 188/131/143
f 183/130/145 179/138/145 177/137/145 181/129/145
usemtl vestShadow
f 173/123/141 174/124/141 167/125/141 163/126/141
f 162/133/144 160/134/144 164/135/144 166/136/144
f 189/123/141 179/126/141 183/125/141 190/124/141
f 178/133/144 182/136/144 180/135/144 176/134/144
usemtl shoes
f 171/143/148 168/153/148 172/131/148 175/128/148
f 170/154/149 171/155/149 175/156/149 174/157/149
f 169/158/150 170/159/150 174/160/150 173/161/150
f 168/162/151 169/163/151 173/164/151 172/165/151
f 187/143/148 191/128/148 188/131/148 184/153/148
f 186/154/151 190/157/151 191/156/151 187/155/151
f 185/158/150 189/161/150 190/160/150 186/159/150
f 184/162/149 188/165/149 189/164/149 185/163/149
usemtl sole
f 164/139/146 160/140/146 168/141/146 171/142/146
f 166/136/142 164/135/142 171/143/142 170/144/142
f 162/145/147 166/146/147 170/147/147 169/148/147
f 160/149/140 162/150/140 169/151/140 168/152/140
f 180/139/146 187/142/146 184/141/146 176/140/146
f 182/136/140 186/144/140 187/143/140 180/135/140
f 178/145/147 185/148/147 186/147/147 182/146/147
f 176/149/142 184/152/142 185/151/142 178/150/142
o head.004
v -0.133805 1.872673 -0.077346
v -0.123834 2.062984 -0.077291
v -0.001703 1.789114 0.008147
v -0.018275 2.061092 -0.163180
v 0.001774 1.769376 -0.144834
v -0.116411 1.838434 0.006585
v 0.001350 1.872795 -0.170639
v 0.000148 1.949664 -0.148586
v -0.021368 1.884764 -0.162168
v 0.001514 1.888131 -0.185062
v -0.000348 2.034223 -0.162772
v -0.145854 2.019898 -0.083308
v -0.102163 1.804780 -0.098855
v 0.001418 1.839418 -0.159131
v 0.000425 1.940465 -0.157442
v -0.012411 1.934514 -0.149228
v -0.145314 1.876767 0.008459
v -0.135052 2.067066 -0.005037
v -0.157603 2.017834 0.016380
v 0.132347 1.875193 -0.071623
v 0.032270 2.062637 -0.129582
v 0.112013 1.840596 0.011496
v 0.023452 1.885188 -0.161205
v 0.141853 2.022621 -0.077121
v 0.102949 1.806722 -0.094444
v 0.013007 1.934754 -0.148681
v 0.140078 1.879469 0.014596
v 0.126806 2.069546 0.000594
v 0.149344 2.020740 0.022980
v -0.185316 1.971612 0.148887
v -0.151842 2.143549 0.115889
v -0.166905 2.041523 -0.171105
v -0.136244 2.163275 -0.134573
v -0.185316 2.051754 0.137481
v 0.000000 2.228025 -0.000240
v -0.148495 2.182461 0.001295
v -0.192267 1.980924 -0.026451
v 0.032490 2.069801 -0.205619
v 0.000000 2.175154 -0.201804
v 0.000000 1.942783 0.228953
v 0.000000 2.175580 0.167213
v -0.156261 2.100927 -0.168514
v -0.198705 2.071231 -0.000240
v 0.000000 2.026461 0.201323
v 0.011397 2.124051 -0.215619
v -0.160390 1.859070 0.113583
v -0.058029 1.840446 0.177818
v -0.109614 1.883967 0.256784
v 0.000000 1.848149 0.263888
v 0.000000 1.806025 0.144104
v -0.172853 1.859635 -0.002710
v -0.220090 1.852197 0.068513
v -0.162547 1.996056 -0.069046
v -0.141426 1.920136 -0.076248
v -0.205492 2.016582 -0.083617
v -0.095042 1.789305 0.086217
v -0.115425 1.838183 0.006634
v -0.173991 1.882215 -0.030204
v -0.142007 1.875894 -0.014248
v -0.146210 1.849904 -0.030191
v -0.116248 1.766037 0.184476
v -0.155656 1.770631 0.011534
v -0.100443 2.111082 0.197389
v -0.149773 1.987059 -0.024447
v -0.086098 2.069801 -0.177334
v 0.051723 2.027777 -0.182886
v -0.026621 2.014939 -0.179766
v -0.148076 1.972432 -0.151163
v -0.165254 1.985026 -0.043202
v -0.135514 2.040259 -0.190157
v 0.078549 1.995227 -0.155033
v 0.185316 1.971612 0.148887
v 0.151842 2.143549 0.115889
v 0.173891 2.027118 -0.171105
v 0.136244 2.163275 -0.134573
v 0.185316 2.051754 0.137481
v 0.148495 2.182461 0.001295
v 0.192267 1.980924 -0.026451
v 0.131601 2.008949 -0.119520
v 0.156261 2.100927 -0.168514
v 0.198705 2.071231 -0.000240
v 0.160390 1.859070 0.113583
v 0.058029 1.840446 0.177818
v 0.109614 1.883967 0.256784
v -0.174558 2.010002 -0.109215
v 0.172853 1.859635 -0.002710
v 0.220090 1.852197 0.068513
v 0.162547 1.996056 -0.069046
v 0.141426 1.920136 -0.076248
v 0.205492 2.016582 -0.083617
v 0.095042 1.789305 0.086217
v 0.115425 1.838183 0.006634
v 0.173991 1.882215 -0.030204
v 0.142007 1.875894 -0.014248
v 0.146210 1.849904 -0.030191
v 0.116248 1.766037 0.184476
v 0.155656 1.770631 0.011534
v 0.100443 2.111082 0.197389
v 0.149773 1.987059 -0.024447
v 0.165254 1.984636 -0.043202
v 0.128585 1.990167 -0.158964
v -0.026804 2.069801 -0.212647
v -0.062268 2.067387 -0.120051
v -0.001703 1.789114 0.008147
v -0.116411 1.838434 0.006585
v -0.115425 1.838183 0.006634
v 0.000000 1.844666 0.118717
v -0.082611 1.844648 0.060830
v 0.112013 1.840596 0.011496
v 0.115425 1.838183 0.006634
v 0.082611 1.844648 0.060830
vn 0.5306 0.0828 0.8436
vn 0.5342 0.5761 0.6187
vn 0.4463 0.1014 0.8891
vn 0.6028 -0.3499 0.7170
vn 0.6684 -0.3186 0.6721
vn 0.5088 0.4437 0.7377
vn 0.5508 -0.1594 0.8193
vn 0.9046 0.4260 -0.0137
vn 0.3259 0.9300 -0.1698
vn 0.4488 0.1809 0.8751
vn 0.6171 -0.5360 0.5761
vn 0.9015 -0.4143 0.1253
vn 0.9889 0.0827 0.1231
vn 0.7978 0.5977 0.0785
vn -0.5678 0.0724 0.8200
vn -0.5711 0.5656 0.5949
vn -0.4860 0.0926 0.8691
vn -0.6264 -0.3616 0.6906
vn -0.6906 -0.3314 0.6429
vn -0.5484 0.4337 0.7150
vn -0.5073 -0.3418 0.7911
vn -0.9111 0.4088 -0.0527
vn -0.3358 0.9238 -0.1840
vn -0.4893 0.1720 0.8550
vn -0.6311 -0.5478 0.5492
vn -0.6435 -0.7040 0.3005
vn -0.9947 0.0639 0.0804
vn -0.8116 0.5825 0.0439
vn 0.9057 -0.3969 0.1492
vn 0.9972 0.0430 -0.0608
vn 0.6978 -0.3950 -0.5975
vn 0.9127 -0.3887 -0.1263
vn 0.2844 -0.9131 -0.2924
vn 0.2420 -0.9470 0.2110
vn 0.3635 -0.3848 0.8484
vn 0.3252 -0.2192 -0.9199
vn 0.8782 0.3090 -0.3651
vn 0.3370 0.9002 -0.2760
vn 0.1936 -0.6906 -0.6968
vn -0.4824 0.5948 -0.6430
vn 0.8209 -0.1978 -0.5358
vn 0.3444 0.8857 -0.3115
vn -0.1282 0.9916 0.0185
vn 0.5358 0.3585 -0.7644
vn 0.7982 0.2362 0.5541
vn 0.9676 -0.2471 -0.0515
vn 0.5760 0.0831 0.8132
vn 0.8373 0.4657 0.2865
vn 0.4833 0.6726 -0.5604
vn 0.3763 0.8363 0.3988
vn 0.9812 0.1150 -0.1553
vn 0.9179 -0.1799 0.3536
vn 0.9153 -0.3671 0.1661
vn -0.2685 0.9488 0.1667
vn 0.6770 0.5823 0.4502
vn 0.9786 0.1772 0.1050
vn 0.7520 0.5863 0.3011
vn -0.4710 -0.4047 0.7838
vn 0.5231 -0.5055 0.6862
vn -0.7379 0.4743 0.4803
vn -0.1092 0.1365 0.9846
vn 0.9795 0.1726 -0.1041
vn 0.1245 -0.1846 -0.9749
vn 0.3420 -0.7787 -0.5259
vn 0.3473 0.3722 -0.8607
vn -0.1480 -0.2205 -0.9641
vn -0.2344 0.0008 0.9721
vn 0.3490 0.9371 0.0065
vn -0.7814 -0.2296 0.5802
vn 0.4580 0.7603 -0.4605
vn 0.2339 0.0802 0.9689
vn 0.1193 0.4929 0.8618
vn -0.4856 0.5016 0.7160
vn 0.4941 0.3627 0.7901
vn 0.5107 -0.1286 0.8501
vn -0.0695 0.6149 0.7855
vn -0.9057 -0.3969 0.1492
vn -0.9972 0.0430 -0.0608
vn -0.6978 -0.3950 -0.5975
vn -0.9127 -0.3887 -0.1263
vn -0.2844 -0.9131 -0.2924
vn -0.2420 -0.9470 0.2110
vn -0.3843 -0.4465 0.8081
vn -0.3252 -0.2192 -0.9199
vn -0.8782 0.3090 -0.3651
vn -0.3370 0.9002 -0.2760
vn -0.1936 -0.6906 -0.6968
vn 0.4824 0.5948 -0.6430
vn -0.8209 -0.1978 -0.5358
vn -0.3444 0.8857 -0.3115
vn 0.1282 0.9916 0.0185
vn -0.5358 0.3585 -0.7644
vn -0.7982 0.2362 0.5541
vn -0.9676 -0.2471 -0.0515
vn -0.3530 0.0094 0.9356
vn -0.8377 0.4616 0.2917
vn -0.4833 0.6726 -0.5604
vn -0.3159 0.8915 0.3248
vn -0.9812 0.1150 -0.1553
vn -0.9236 -0.2313 0.3058
vn -0.9153 -0.3671 0.1661
vn 0.2685 0.9488 0.1667
vn -0.6770 0.5823 0.4502
vn -0.9786 0.1772 0.1050
vn -0.7520 0.5863 0.3011
vn 0.4710 -0.4047 0.7838
vn -0.5231 -0.5055 0.6862
vn 0.7379 0.4743 0.4803
vn 0.1092 0.1365 0.9846
vn -0.9795 0.1726 -0.1041
vn -0.1245 -0.1846 -0.9749
vn -0.3420 -0.7787 -0.5259
vn -0.3473 0.3722 -0.8607
vn 0.1480 -0.2205 -0.9641
vn 0.2344 0.0008 0.9721
vn -0.3490 0.9371 0.0065
vn 0.7814 -0.2296 0.5802
vn -0.4494 0.7602 -0.4692
vn -0.0957 0.4147 0.9049
vn 0.9034 0.3264 0.2780
vn -0.2803 -0.0292 0.9595
vn -0.6505 0.7038 -0.2854
vn -0.6926 -0.6292 0.3526
vn 0.2111 0.9703 0.1184
vn -0.4731 0.6295 -0.6164
vn -0.7509 0.5684 0.3363
vn -0.2312 -0.2917 0.9281
vn -0.1299 -0.9915 0.0122
vn 0.4703 0.8004 -0.3718
vn -0.2241 0.6514 -0.7249
vn -0.6767 0.4620 0.5733
vn -0.4672 -0.8801 -0.0843
vn -0.2694 -0.2822 0.9208
vn -0.4838 -0.7640 -0.4269
vn -0.4637 -0.5763 -0.6730
vn -0.0922 0.9914 0.0931
vn -0.5150 0.4592 0.7239
vn -0.8090 0.3853 0.4439
vn 0.3326 0.8573 -0.3929
vn 0.5150 0.4592 0.7239
vn 0.8090 0.3853 0.4439
vn -0.3318 0.8637 -0.3794
vn -0.6526 -0.7182 0.2412
vn -0.2756 -0.7978 0.5362
vn 0.4948 0.7758 0.3915
vn -0.6142 -0.7855 -0.0758
vn -0.4656 -0.7847 0.4092
vn -0.8993 -0.4352 -0.0436
vn -0.8049 -0.5865 0.0898
vn -0.0360 -0.3467 0.9373
vt 0.750624 0.649520
vt 0.675983 0.592220
vt 0.476294 0.609285
vt 0.486864 0.643460
vt 0.484750 0.658644
vt 0.536663 0.655402
vt 0.483693 0.716524
vt 0.483693 0.791287
vt 0.772242 0.779766
vt 0.509186 0.703237
vt 0.483693 0.708398
vt 0.735916 0.654246
vt 0.727575 0.658389
vt 0.727575 0.663987
vt 0.731092 0.662759
vt 0.734609 0.661530
vt 0.752597 0.658742
vt 0.752594 0.658537
vt 0.752903 0.659091
vt 0.976033 0.783785
vt 0.979469 0.787035
vt 0.979499 0.788983
vt 0.976033 0.784946
vt 0.483693 0.557140
vt 0.217985 0.802436
vt 0.205609 0.871392
vt 0.671775 0.610876
vt 0.736178 0.654302
vt 0.216763 0.649520
vt 0.301471 0.593699
vt 0.432838 0.655402
vt 0.195145 0.779766
vt 0.458201 0.703237
vt 0.728333 0.651264
vt 0.146193 0.774202
vt 0.500000 0.125000
vt 0.500000 0.250000
vt 0.625000 0.250000
vt 0.625000 0.125000
vt 0.375000 0.000000
vt 0.375000 0.125000
vt 0.500000 0.000000
vt 0.625000 0.000000
vt 0.750000 0.625000
vt 0.750000 0.750000
vt 0.875000 0.750000
vt 0.875000 0.625000
vt 0.750000 0.500000
vt 0.875000 0.500000
vt 0.500000 0.375000
vt 0.625000 0.375000
vt 0.375000 0.875000
vt 0.375000 1.000000
vt 0.500000 1.000000
vt 0.500000 0.875000
vt 0.000000 0.000000
vt 0.375000 0.175336
vt 0.375000 0.144175
vt 0.375000 0.134588
vt 0.375000 0.212668
vt 0.375000 0.250000
vt 0.375000 0.164033
vt 0.625000 0.875000
vt 0.187500 0.062500
vt 0.375000 0.304791
vt 0.375000 0.339895
vt 0.375000 0.375000
vt 0.172315 0.883022
s 0
usemtl phanta_body
f 250/221/210 242/221/210 251/221/210
f 285/221/258 286/221/258 277/221/258
f 270/221/274 229/221/274 292/221/274
f 229/221/283 270/221/283 212/200/283
f 294/233/296 262/230/296 195/221/296
usemtl hair1
f 234/201/180 233/202/180 224/203/180 227/204/180
f 222/208/182 254/208/182 225/207/182
f 225/207/183 234/201/183 227/204/183 222/208/183
f 233/202/186 236/215/186 230/216/186 224/203/186
f 231/217/187 221/218/187 225/219/187 235/220/187
f 231/221/192 240/221/192 238/221/192
f 247/221/200 253/221/200 237/221/200
f 242/221/206 251/221/206 249/221/206
f 242/221/207 249/221/207 228/221/207
f 249/221/209 251/221/209 250/221/209
f 237/221/213 253/221/213 242/221/213
f 237/221/214 238/221/214 241/221/214 252/221/214
f 235/220/217 254/220/217 232/228/217
f 228/221/218 249/221/218 250/221/218 255/221/218
f 251/221/220 248/221/220 250/221/220
f 272/201/228 268/204/228 266/203/228 271/202/228
f 264/208/230 267/207/230 289/208/230
f 267/207/231 264/208/231 268/204/231 272/201/231
f 271/202/234 266/203/234 230/216/234 236/215/234
f 231/217/235 235/220/235 267/219/235 263/218/235
f 231/221/240 274/221/240 240/221/240
f 282/221/248 273/221/248 288/221/248
f 277/221/254 284/221/254 286/221/254
f 277/221/255 269/221/255 284/221/255
f 284/221/257 285/221/257 286/221/257
f 273/221/261 277/221/261 288/221/261
f 273/221/262 287/221/262 241/221/262 274/221/262
f 235/220/265 232/228/265 289/220/265
f 269/221/266 290/221/266 285/221/266 284/221/266
f 286/221/268 285/221/268 283/221/268
usemtl hair2
f 221/221/188 239/221/188 237/221/188
f 237/221/189 239/221/189 238/221/189
f 238/221/191 239/221/191 231/221/191
f 240/221/193 241/221/193 238/221/193
f 242/221/194 243/221/194 237/221/194
f 237/221/195 243/221/195 221/221/195
f 228/221/196 243/221/196 242/221/196
f 203/221/198 244/222/198 245/206/198
f 245/206/199 244/222/199 228/223/199 260/224/199
f 244/222/201 276/225/201 223/226/201 246/227/201 228/206/201
f 228/206/202 246/227/202 234/201/202
f 247/221/205 252/221/205 241/221/205
f 237/221/208 252/221/208 247/221/208
f 248/221/211 253/221/211 247/221/211
f 242/221/212 253/221/212 248/221/212
f 251/221/219 242/221/219 248/221/219
f 258/230/227 262/230/227 257/232/227
f 263/221/236 273/221/236 275/221/236
f 273/221/237 274/221/237 275/221/237
f 274/221/239 231/221/239 275/221/239
f 240/221/241 274/221/241 241/221/241
f 277/221/242 273/221/242 278/221/242
f 273/221/243 263/221/243 278/221/243
f 269/221/244 277/221/244 278/221/244
f 215/221/246 280/206/246 279/222/246
f 280/206/247 291/224/247 269/223/247 279/222/247
f 279/222/249 269/206/249 281/227/249 265/226/249
f 269/206/250 272/201/250 281/227/250
f 282/221/253 241/221/253 287/221/253
f 273/221/256 282/221/256 287/221/256
f 283/221/259 282/221/259 288/221/259
f 277/221/260 283/221/260 288/221/260
f 286/221/267 283/221/267 277/221/267
f 223/226/271 276/225/271 259/221/271
f 265/221/273 292/221/273 270/221/273
f 270/221/275 215/221/275 279/222/275 265/226/275
f 257/232/299 212/200/299 229/221/299
f 262/230/300 212/200/300 257/232/300
usemtl hair3
f 226/209/184 232/210/184 222/211/184 227/212/184
f 230/213/185 226/209/185 227/212/185 224/214/185
f 231/217/190 239/217/190 221/218/190
f 221/205/197 243/205/197 228/206/197
f 223/226/203 233/202/203 246/227/203
f 233/202/204 234/201/204 246/227/204
f 232/210/215 254/210/215 222/211/215
f 256/230/222 293/231/222 229/232/222 236/215/222 233/202/222
f 223/221/226 261/221/226 233/202/226
f 226/209/232 268/212/232 264/211/232 232/210/232
f 230/213/233 266/214/233 268/212/233 226/209/233
f 231/217/238 263/218/238 275/217/238
f 263/205/245 269/206/245 278/205/245
f 265/226/251 281/227/251 271/202/251
f 271/202/252 281/227/252 272/201/252
f 232/210/263 264/211/263 289/210/263
f 229/232/272 265/226/272 271/202/272 236/215/272
f 256/221/301 233/202/301 261/221/301
usemtl hair4
f 228/221/221 255/221/221 245/206/221 260/229/221
f 269/221/269 291/229/269 280/206/269 290/221/269
f 193/191/276 294/233/276 259/221/276
f 259/221/277 294/233/277 256/221/277
f 212/200/280 215/221/280 270/221/280
f 276/225/281 193/191/281 259/221/281
f 276/225/282 244/222/282 203/190/282 193/191/282
f 294/233/294 256/230/294 258/230/294
f 262/230/295 294/233/295 258/230/295
f 212/200/297 229/232/297 292/232/297
f 212/200/298 292/221/298 270/221/298
usemtl hair5
f 241/221/288 298/221/288 299/221/288 247/221/288
f 247/221/289 299/221/289 297/221/289
f 241/221/291 282/221/291 302/221/291 298/221/291
f 282/221/292 301/221/292 302/221/292
usemtl hair6
f 221/205/181 228/206/181 234/201/181 225/207/181
f 225/219/216 254/219/216 235/220/216
f 256/230/223 258/230/223 257/232/223 229/232/223 293/231/223
f 256/221/224 261/221/224 259/221/224
f 259/221/225 261/221/225 223/221/225
f 263/205/229 267/207/229 272/201/229 269/206/229
f 267/219/264 235/220/264 289/219/264
f 229/232/270 292/232/270 265/226/270
usemtl 
f 203/190/163 193/191/163 209/191/163 210/190/163
f 215/190/177 220/190/177 219/191/177 212/200/177
f 195/221/279 294/233/279 256/230/279
f 195/221/287 212/200/287 229/232/287
usemtl 
f 256/230/278 258/230/278 195/221/278
f 258/230/284 262/230/284 195/221/284
f 262/230/285 195/221/285 257/232/285
f 257/232/286 195/221/286 229/232/286
usemtl faceShadow.001
f 196/185/160 204/186/160 197/187/160 194/188/160
f 196/185/174 194/188/174 213/187/174 216/186/174
f 296/187/290 299/221/290 298/221/290 295/188/290
f 300/187/293 295/188/293 298/221/293 302/221/293
usemtl faceTex
f 192/166/152 204/167/152 205/168/152 198/169/152
f 198/169/153 201/170/153 200/171/153
f 192/166/154 199/172/154 202/173/154 203/174/154
f 200/171/155 207/175/155 199/172/155 192/166/155
f 200/171/156 201/170/156 206/176/156 207/175/156
f 192/166/157 198/169/157 200/171/157
f 203/177/158 202/178/158 195/179/158 294/180/158 193/181/158
f 197/182/159 204/183/159 192/184/159
f 205/168/161 204/167/161 196/189/161
f 207/175/162 206/176/162 199/172/162
f 192/192/164 203/193/164 210/193/164 208/192/164
f 192/192/165 208/192/165 197/182/165
f 211/194/166 198/169/166 205/168/166 216/195/166
f 198/169/167 214/196/167 201/170/167
f 211/194/168 215/197/168 202/173/168 199/172/168
f 214/196/169 211/194/169 199/172/169 217/198/169
f 214/196/170 217/198/170 206/176/170 201/170/170
f 211/194/171 214/196/171 198/169/171
f 215/177/172 212/199/172 195/179/172 202/178/172
f 213/182/173 211/184/173 216/183/173
f 205/168/175 196/189/175 216/195/175
f 217/198/176 199/172/176 206/176/176
f 211/192/178 218/192/178 220/193/178 215/193/178
f 211/192/179 213/182/179 218/192/179
o pants_leg
v -0.121408 0.104210 -0.107290
v -0.109333 0.932432 -0.125979
v -0.210098 0.104210 -0.065590
v -0.192107 0.929908 -0.064360
v -0.223796 0.104210 0.025417
v -0.216032 0.932432 0.016407
v -0.164640 0.104210 0.097202
v -0.148529 0.866943 0.110643
v -0.071633 0.104210 0.095709
v -0.057853 0.866943 0.110643
v -0.014812 0.104210 0.022062
v 0.000000 0.931170 0.019688
v -0.036963 0.104210 -0.068281
v -0.023475 0.928272 -0.117408
v -0.115612 0.563906 -0.118035
v -0.201257 0.563906 -0.069313
v -0.214282 0.563906 0.018511
v -0.157195 0.563906 0.087784
v -0.067443 0.563906 0.086343
v -0.012609 0.563906 0.015273
v -0.033986 0.563906 -0.071909
v -0.122185 1.039533 0.159922
v -0.122185 1.141112 0.128180
v -0.109333 1.128381 -0.125979
v -0.201296 1.128381 0.016407
v -0.167474 1.210377 0.016407
v -0.100348 1.210377 -0.099726
v -0.093485 1.212449 0.107197
v -0.178062 1.128381 -0.063942
v 0.000000 0.962025 -0.135869
v 0.000000 1.128381 -0.125979
v 0.000000 1.210377 -0.099726
v -0.133911 1.210377 -0.041660
v 0.000000 0.932432 -0.054786
v 0.000000 1.039533 0.159922
v 0.000000 1.141112 0.128180
v 0.000000 1.212449 0.107197
v -0.000045 0.866943 0.110643
v -0.209611 0.209367 -0.066201
v -0.223199 0.209367 0.024284
v -0.164382 0.209367 0.095657
v -0.071909 0.209367 0.094172
v -0.015414 0.209367 0.020948
v -0.037438 0.209367 -0.068876
v -0.121420 0.209367 -0.109052
v -0.121548 0.117675 -0.123408
v -0.223650 0.117675 -0.075403
v -0.223090 0.195902 -0.076106
v -0.239420 0.117675 0.029367
v -0.238732 0.195902 0.028063
v -0.171318 0.117675 0.112007
v -0.171021 0.195902 0.110229
v -0.064246 0.117675 0.110288
v -0.064564 0.195902 0.108519
v -0.002571 0.117675 0.025504
v -0.003264 0.195902 0.024222
v -0.024334 0.117675 -0.078500
v -0.024880 0.195902 -0.079185
v -0.121562 0.195902 -0.125437
v 0.121408 0.104210 -0.107290
v 0.109333 0.932432 -0.125979
v 0.210098 0.104210 -0.065590
v 0.192107 0.929908 -0.064360
v 0.223796 0.104210 0.025417
v 0.216032 0.932432 0.016407
v 0.164640 0.104210 0.097202
v 0.148529 0.866943 0.110643
v 0.071633 0.104210 0.095709
v 0.057853 0.866943 0.110643
v 0.014812 0.104210 0.022062
v 0.000000 0.931170 0.019688
v 0.036963 0.104210 -0.068281
v 0.023475 0.928272 -0.117408
v 0.115612 0.563906 -0.118035
v 0.201257 0.563906 -0.069313
v 0.214282 0.563906 0.018511
v 0.157195 0.563906 0.087784
v 0.067443 0.563906 0.086343
v 0.012609 0.563906 0.015273
v 0.033986 0.563906 -0.071909
v 0.122185 1.039533 0.159922
v 0.122185 1.141112 0.128180
v 0.109333 1.128381 -0.125979
v 0.201296 1.128381 0.016407
v 0.167474 1.210377 0.016407
v 0.100348 1.210377 -0.099726
v 0.093485 1.212449 0.107197
v 0.178062 1.128381 -0.063942
v 0.000000 0.962025 -0.135869
v 0.000000 1.128381 -0.125979
v 0.000000 1.210377 -0.099726
v 0.133911 1.210377 -0.041660
v 0.000000 0.932432 -0.054786
v 0.000000 1.039533 0.159922
v 0.000000 1.141112 0.128180
v -0.000000 1.212449 0.107197
v 0.000045 0.866943 0.110643
v 0.209611 0.209367 -0.066201
v 0.223199 0.209367 0.024284
v 0.164382 0.209367 0.095657
v 0.071909 0.209367 0.094172
v 0.015414 0.209367 0.020948
v 0.037438 0.209367 -0.068876
v 0.121420 0.209367 -0.109052
v 0.121548 0.117675 -0.123408
v 0.223650 0.117675 -0.075403
v 0.223090 0.195902 -0.076106
v 0.239420 0.117675 0.029367
v 0.238732 0.195902 0.028063
v 0.171318 0.117675 0.112007
v 0.171021 0.195902 0.110229
v 0.064246 0.117675 0.110288
v 0.064564 0.195902 0.108519
v 0.002571 0.117675 0.025504
v 0.003264 0.195902 0.024222
v 0.024334 0.117675 -0.078500
v 0.024880 0.195902 -0.079185
v 0.121562 0.195902 -0.125437
vn 0.5481 -0.0081 0.8364
vn 0.9767 -0.0107 0.2142
vn 0.7974 0.0104 -0.6034
vn -0.0080 0.0778 -0.9969
vn -0.8293 0.0513 -0.5564
vn -0.9798 0.0419 0.1954
vn -0.3078 0.0762 0.9484
vn -0.0000 1.0000 -0.0000
vn -0.4620 0.0211 0.8866
vn -0.9712 0.0115 0.2381
vn -0.7917 -0.0035 -0.6109
vn -0.0160 -0.0219 -0.9996
vn 0.7714 -0.0298 -0.6357
vn 0.9888 -0.0222 0.1476
vn 0.4661 0.0058 0.8847
vn 0.6324 -0.0233 0.7743
vn -0.0000 -0.2983 -0.9545
vn 0.7510 -0.3801 -0.5399
vn 0.8396 -0.0535 -0.5405
vn 0.8303 -0.4411 0.3407
vn -0.0000 -0.3049 0.9524
vn 0.0488 -0.0273 0.9984
vn 0.6972 -0.4016 0.5938
vn 0.9571 -0.0701 0.2812
vn -0.0000 -0.2822 -0.9594
vn -0.0000 0.2746 -0.9616
vn 0.0044 -0.9999 0.0099
vn -0.0608 0.5112 0.8573
vn -0.5695 0.8063 0.1599
vn -0.0000 0.8169 0.5768
vn -0.5744 -0.6969 -0.4295
vn 0.6639 0.7411 0.0999
vn -0.0109 -0.7319 -0.6813
vn -0.0108 0.7373 -0.6754
vn 0.5273 -0.7302 -0.4345
vn -0.7049 0.6911 0.1593
vn 0.6655 -0.7397 0.0999
vn 0.4312 0.0142 0.9021
vn 0.9889 -0.0060 0.1487
vn 0.7716 -0.0174 -0.6359
vn -0.0160 -0.0227 -0.9996
vn -0.8086 -0.0167 -0.5881
vn -0.9788 -0.0052 0.2047
vn -0.4254 0.0142 0.9049
vn -0.2846 0.7345 0.6160
vn -0.7063 -0.6897 0.1595
vn -0.5706 0.7016 -0.4268
vn -0.2913 -0.7379 0.6089
vn 0.5238 0.7344 -0.4316
vn 0.2880 0.7362 0.6125
vn 0.2941 -0.7397 0.6053
vn -0.5481 -0.0081 0.8364
vn -0.9767 -0.0107 0.2142
vn -0.7974 0.0104 -0.6034
vn 0.0080 0.0778 -0.9969
vn 0.8293 0.0513 -0.5564
vn 0.9798 0.0419 0.1954
vn 0.3078 0.0762 0.9484
vn 0.4620 0.0211 0.8866
vn 0.9712 0.0115 0.2381
vn 0.7917 -0.0035 -0.6109
vn 0.0160 -0.0219 -0.9996
vn -0.7714 -0.0298 -0.6357
vn -0.9888 -0.0222 0.1476
vn -0.4661 0.0058 0.8847
vn -0.6324 -0.0233 0.7743
vn -0.7510 -0.3801 -0.5399
vn -0.8396 -0.0535 -0.5405
vn -0.8303 -0.4411 0.3407
vn -0.0488 -0.0273 0.9984
vn -0.6972 -0.4016 0.5938
vn -0.9571 -0.0701 0.2812
vn -0.0044 -0.9999 0.0099
vn 0.0608 0.5112 0.8573
vn 0.5695 0.8063 0.1599
vn 0.5744 -0.6969 -0.4295
vn -0.6639 0.7411 0.0999
vn 0.0109 -0.7319 -0.6813
vn 0.0108 0.7373 -0.6754
vn -0.5273 -0.7302 -0.4345
vn 0.7049 0.6911 0.1593
vn -0.6655 -0.7397 0.0999
vn -0.4312 0.0142 0.9021
vn -0.9889 -0.0060 0.1487
vn -0.7716 -0.0174 -0.6359
vn 0.0160 -0.0227 -0.9996
vn 0.8086 -0.0167 -0.5881
vn 0.9788 -0.0052 0.2047
vn 0.4254 0.0142 0.9049
vn 0.2846 0.7345 0.6160
vn 0.7063 -0.6897 0.1595
vn 0.5706 0.7016 -0.4268
vn 0.2913 -0.7379 0.6089
vn -0.5238 0.7344 -0.4316
vn -0.2880 0.7362 0.6125
vn -0.2941 -0.7397 0.6053
vt 1.000000 0.750000
vt 1.000000 1.000000
vt 0.857143 1.000000
vt 0.857143 0.750000
vt 0.714286 1.000000
vt 0.714286 0.750000
vt 0.571429 1.000000
vt 0.571429 0.750000
vt 0.428571 1.000000
vt 0.428571 0.750000
vt 0.285714 1.000000
vt 0.285714 0.750000
vt 0.142857 1.000000
vt 0.142857 0.750000
vt 0.000000 1.000000
vt 0.000000 0.750000
vt 0.750000 0.490000
vt 0.937640 0.399638
vt 0.983983 0.196595
vt 0.854132 0.033767
vt 0.645868 0.033767
vt 0.516017 0.196595
vt 0.562360 0.399638
vt 0.142857 0.541010
vt 0.000000 0.541010
vt 0.285714 0.541010
vt 0.428571 0.541010
vt 0.571429 0.541010
vt 0.714286 0.541010
vt 0.857143 0.541010
vt 1.000000 0.541010
vt 0.375000 0.187500
vt 0.375000 0.250000
vt 0.625000 0.250000
vt 0.625000 0.187500
vt 0.375000 0.875000
vt 0.375000 1.000000
vt 0.625000 1.000000
vt 0.625000 0.875000
vt 0.625000 0.125000
vt 0.625000 0.000000
vt 0.375000 0.000000
vt 0.375000 0.062500
vt 0.375000 0.125000
vt 0.625000 0.375000
vt 0.375000 0.375000
vt 0.375000 0.218750
vt 0.062360 0.399638
vt 0.250000 0.490000
vt 0.000000 0.000000
vt 1.000000 0.500000
vt 0.857143 0.500000
vt 0.714286 0.500000
vt 0.571429 0.500000
vt 0.428571 0.500000
vt 0.285714 0.500000
vt 0.142857 0.500000
vt 0.000000 0.500000
s 0
usemtl pants
f 317/234/302 304/235/302 306/236/302 318/237/302
f 318/237/303 306/236/303 308/238/303 319/239/303
f 319/239/304 308/238/304 310/240/304 320/241/304
f 303/250/309 305/251/309 307/252/309 309/253/309 311/254/309 313/255/309 315/256/309
f 342/262/314 319/239/314 320/241/314 343/261/314
f 341/263/315 318/237/315 319/239/315 342/262/315
f 347/264/316 317/234/316 318/237/316 341/263/316
f 306/265/317 304/266/317 326/267/317 331/268/317
f 337/269/318 324/270/318 325/271/318 338/272/318
f 324/275/320 310/276/320 308/277/320 327/273/320 325/274/320
f 304/266/323 332/279/323 333/278/323 326/267/323
f 308/277/325 306/265/325 331/268/325 327/273/325
f 335/268/328 329/267/328 334/278/328 339/272/328 330/274/328 328/273/328
f 348/284/339 361/264/339 350/263/339 349/285/339
f 349/285/340 350/263/340 352/262/340 351/286/340
f 351/286/341 352/262/341 354/261/341 353/287/341
f 353/287/342 354/261/342 356/260/342 355/288/342
f 355/288/343 356/260/343 358/259/343 357/289/343
f 357/289/344 358/259/344 360/257/344 359/290/344
f 359/290/345 360/257/345 361/258/345 348/291/345
f 376/234/353 377/237/353 365/236/353 363/235/353
f 377/237/354 378/239/354 367/238/354 365/236/354
f 378/239/355 379/241/355 369/240/355 367/238/355
f 362/250/309 374/256/309 372/255/309 370/254/309 368/253/309 366/252/309 364/251/309
f 401/262/364 402/261/364 379/241/364 378/239/364
f 400/263/365 401/262/365 378/239/365 377/237/365
f 406/264/366 400/263/366 377/237/366 376/234/366
f 365/265/367 390/268/367 385/267/367 363/266/367
f 396/269/318 397/272/318 384/271/318 383/270/318
f 383/275/369 384/274/369 386/273/369 367/277/369 369/276/369
f 363/266/371 385/267/371 392/278/371 391/279/371
f 367/277/373 386/273/373 390/268/373 365/265/373
f 394/268/374 387/273/374 389/274/374 398/272/374 393/278/374 388/267/374
f 407/284/384 408/285/384 409/263/384 420/264/384
f 408/285/385 410/286/385 411/262/385 409/263/385
f 410/286/386 412/287/386 413/261/386 411/262/386
f 412/287/387 414/288/387 415/260/387 413/261/387
f 414/288/388 416/289/388 417/259/388 415/260/388
f 416/289/389 418/290/389 419/257/389 417/259/389
f 418/290/390 407/291/390 420/258/390 419/257/390
usemtl pantsShadow
f 321/243/306 312/242/306 314/244/306 322/245/306
f 322/245/307 314/244/307 316/246/307 323/247/307
f 345/259/311 322/245/311 323/247/311 346/257/311
f 344/260/312 321/243/312 322/245/312 345/259/312
f 316/281/329 332/279/329 304/282/329
f 332/283/330 316/283/330 314/283/330 336/283/330
f 312/280/331 340/279/331 314/244/331
f 305/251/333 349/251/333 351/252/333 307/252/333
f 309/253/335 353/253/335 355/254/335 311/254/335
f 313/255/337 357/255/337 359/256/337 315/256/337
f 315/256/346 359/256/346 348/250/346 303/250/346
f 311/254/348 355/254/348 357/255/348 313/255/348
f 307/252/350 351/252/350 353/253/350 309/253/350
f 303/250/351 348/250/351 349/251/351 305/251/351
f 380/243/357 381/245/357 373/244/357 371/242/357
f 381/245/358 382/247/358 375/246/358 373/244/358
f 404/259/361 405/257/361 382/247/361 381/245/361
f 403/260/362 404/259/362 381/245/362 380/243/362
f 375/281/375 363/282/375 391/279/375
f 391/283/376 395/283/376 373/283/376 375/283/376
f 371/280/331 373/244/331 399/279/331
f 364/251/378 366/252/378 410/252/378 408/251/378
f 368/253/380 370/254/380 414/254/380 412/253/380
f 372/255/382 374/256/382 418/256/382 416/255/382
f 374/256/391 362/250/391 407/250/391 418/256/391
f 370/254/393 372/255/393 416/255/393 414/254/393
f 366/252/395 368/253/395 412/253/395 410/252/395
f 362/250/396 364/251/396 408/251/396 407/250/396
usemtl pantsLight
f 327/273/319 328/273/319 330/274/319 325/274/319
f 331/268/321 335/268/321 328/273/321 327/273/321
f 333/278/322 334/278/322 329/267/322 326/267/322
f 326/267/324 329/267/324 335/268/324 331/268/324
f 325/271/326 330/271/326 339/272/326 338/272/326
f 345/259/332 358/259/332 356/260/332 344/260/332
f 344/260/334 356/260/334 354/261/334 343/261/334
f 343/261/336 354/261/336 352/262/336 342/262/336
f 342/262/338 352/262/338 350/263/338 341/263/338
f 346/257/347 360/257/347 358/259/347 345/259/347
f 347/258/349 361/258/349 360/257/349 346/257/349
f 341/263/352 350/263/352 361/264/352 347/264/352
f 386/273/368 384/274/368 389/274/368 387/273/368
f 390/268/370 386/273/370 387/273/370 394/268/370
f 392/278/322 385/267/322 388/267/322 393/278/322
f 385/267/372 390/268/372 394/268/372 388/267/372
f 384/271/326 397/272/326 398/272/326 389/271/326
f 404/259/377 403/260/377 415/260/377 417/259/377
f 403/260/379 402/261/379 413/261/379 415/260/379
f 402/261/381 401/262/381 411/262/381 413/261/381
f 401/262/383 400/263/383 409/263/383 411/262/383
f 405/257/392 404/259/392 417/259/392 419/257/392
f 406/258/394 405/257/394 419/257/394 420/258/394
f 400/263/397 406/264/397 420/264/397 409/263/397
usemtl pantsShadow2
f 320/241/305 310/240/305 312/242/305 321/243/305
f 323/247/308 316/246/308 304/248/308 317/249/308
f 346/257/310 323/247/310 317/249/310 347/258/310
f 343/261/313 320/241/313 321/243/313 344/260/313
f 310/276/327 324/270/327 337/269/327 340/279/327 312/280/327
f 379/241/356 380/243/356 371/242/356 369/240/356
f 382/247/359 376/249/359 363/248/359 375/246/359
f 405/257/360 406/258/360 376/249/360 382/247/360
f 402/261/363 403/260/363 380/243/363 379/241/363
f 369/276/327 371/280/327 399/279/327 396/269/327 383/270/327
o ear
v -0.164621 1.903885 0.004507
v -0.163348 1.983005 -0.010173
v -0.135537 1.905594 -0.054590
v -0.148196 1.983895 -0.040961
v -0.178909 1.981906 -0.017359
v -0.187378 1.961256 -0.003068
v -0.179157 1.902786 -0.002678
v -0.150073 1.904495 -0.061776
v -0.168850 1.962355 0.004117
v -0.139766 1.964064 -0.054981
v -0.137051 1.885540 -0.048461
v -0.147651 1.884917 -0.026921
v -0.163757 1.982796 -0.048146
v -0.158294 1.962965 -0.062166
v -0.151586 1.884440 -0.055646
v -0.162187 1.883817 -0.034106
v 0.164621 1.903885 0.004507
v 0.163348 1.983005 -0.010173
v 0.135537 1.905594 -0.054590
v 0.148196 1.983895 -0.040961
v 0.178909 1.981906 -0.017359
v 0.187378 1.961256 -0.003068
v 0.179157 1.902786 -0.002678
v 0.150073 1.904495 -0.061776
v 0.168850 1.962355 0.004117
v 0.139766 1.964064 -0.054981
v 0.137051 1.885540 -0.048461
v 0.147651 1.884917 -0.026921
v 0.163757 1.982796 -0.048146
v 0.158294 1.962965 -0.062166
v 0.151586 1.884440 -0.055646
v 0.162187 1.883817 -0.034106
vn -0.8944 -0.0676 -0.4421
vn 0.3409 -0.6102 -0.7152
vn -0.4414 0.2926 0.8482
vn -0.3963 -0.0361 0.9174
vn 0.8884 0.1279 0.4409
vn 0.8944 0.0676 0.4421
vn 0.8961 -0.0636 0.4392
vn 0.3963 0.0361 -0.9174
vn -0.2715 -0.6172 0.7385
vn 0.0683 -0.9977 0.0048
vn -0.0721 0.9974 -0.0067
vn 0.1548 0.8806 -0.4479
vn 0.8944 -0.0676 -0.4421
vn -0.3409 -0.6102 -0.7152
vn 0.4414 0.2926 0.8482
vn 0.3963 -0.0361 0.9174
vn -0.8884 0.1279 0.4409
vn -0.8944 0.0676 0.4421
vn -0.8961 -0.0636 0.4392
vn -0.3963 0.0361 -0.9174
vn 0.2715 -0.6172 0.7385
vn -0.0683 -0.9977 0.0048
vn 0.0721 0.9974 -0.0067
vn -0.1548 0.8806 -0.4479
vt 0.753281 0.681930
vt 0.750352 0.695050
vt 0.741884 0.700332
vt 0.737011 0.691595
vt 0.762847 0.682762
vt 0.758444 0.695926
vt 0.734560 0.659309
vt 0.742206 0.659946
vt 0.743057 0.648124
vt 0.735449 0.647570
vt 0.746871 0.692532
vt 0.758299 0.651558
vt 0.749032 0.645183
vt 0.750098 0.701262
vt 0.750861 0.651001
vt 0.741500 0.644656
s 0
usemtl faceTex
f 429/292/398 422/293/398 424/294/398 430/295/398
f 429/292/399 426/296/399 425/297/399 422/293/399
f 423/298/400 428/299/400 435/300/400 431/301/400
f 430/295/401 434/302/401 428/299/401 423/298/401
f 427/303/402 428/299/402 434/302/402 426/296/402
f 427/303/403 436/304/403 435/300/403 428/299/403
f 426/296/404 434/302/404 433/305/404 425/297/404
f 421/306/405 427/303/405 426/296/405 429/292/405
f 421/306/398 423/298/398 431/301/398 432/307/398
f 421/306/398 429/292/398 430/295/398 423/298/398
f 424/294/406 433/305/406 434/302/406 430/295/406
f 422/293/407 425/297/407 433/305/407 424/294/407
f 431/301/408 435/300/408 436/304/408 432/307/408
f 432/307/409 436/304/409 427/303/409 421/306/409
f 445/292/410 446/295/410 440/294/410 438/293/410
f 445/292/411 438/293/411 441/297/411 442/296/411
f 439/298/412 447/301/412 451/300/412 444/299/412
f 446/295/413 439/298/413 444/299/413 450/302/413
f 443/303/414 442/296/414 450/302/414 444/299/414
f 443/303/415 444/299/415 451/300/415 452/304/415
f 442/296/416 441/297/416 449/305/416 450/302/416
f 437/306/417 445/292/417 442/296/417 443/303/417
f 437/306/410 448/307/410 447/301/410 439/298/410
f 437/306/410 439/298/410 446/295/410 445/292/410
f 440/294/418 446/295/418 450/302/418 449/305/418
f 438/293/419 440/294/419 449/305/419 441/297/419
f 447/301/420 448/307/420 452/304/420 451/300/420
f 448/307/421 437/306/421 443/303/421 452/304/421
o Cube.001
v -0.146709 1.666683 0.107667
v -0.110501 1.763963 0.044700
v -0.146709 1.569380 -0.107667
v -0.110501 1.714184 -0.049038
v 0.146709 1.666683 0.107667
v 0.110501 1.763963 0.044700
v 0.146709 1.569380 -0.107667
v 0.110501 1.714184 -0.049038
vn 0.9501 -0.2818 0.1341
vn -0.0000 -0.3753 0.9269
vn -0.9501 -0.2818 0.1341
vn -0.0000 -0.5434 -0.8395
vn -0.0000 0.9113 -0.4118
vn -0.0000 -0.8832 0.4690
vt 0.375000 0.000000
vt 0.375000 0.250000
vt 0.625000 0.250000
vt 0.625000 0.000000
vt 0.375000 0.500000
vt 0.625000 0.500000
vt 0.375000 0.750000
vt 0.625000 0.750000
vt 0.375000 1.000000
vt 0.625000 1.000000
vt 0.125000 0.500000
vt 0.125000 0.750000
vt 0.875000 0.750000
vt 0.875000 0.500000
s 0
usemtl faceShadow2
f 453/308/422 455/309/422 456/310/422 454/311/422
f 455/309/423 459/312/423 460/313/423 456/310/423
f 459/312/424 457/314/424 458/315/424 460/313/424
f 457/314/425 453/316/425 454/317/425 458/315/425
f 455/318/426 453/319/426 457/314/426 459/312/426
f 460/313/427 458/315/427 454/320/427 456/321/427
o Plane
v -0.040317 1.681399 -0.132781
v -0.006350 1.729396 -0.120432
v -0.090470 1.751960 -0.106687
v -0.057377 1.779205 -0.086612
v -0.086408 1.769605 -0.067089
v -0.059119 1.783997 -0.054740
v -0.078482 1.776610 -0.007639
v -0.055394 1.797826 -0.008560
v 0.000000 1.704836 -0.099844
v -0.025320 1.742849 -0.080072
v 0.000000 1.639856 -0.099844
v -0.078903 1.639856 -0.099844
v -0.078903 1.734878 -0.043748
v -0.039680 1.764776 -0.030551
v -0.009880 1.766782 0.031548
v -0.039819 1.797660 0.016437
v -0.057660 1.781034 0.034163
v 0.000000 1.762072 0.041015
v -0.022758 1.799130 0.047076
v -0.035220 1.779672 0.063512
v 0.000000 1.798941 0.057606
v 0.000000 1.777993 0.066842
v 0.040317 1.681399 -0.132781
v 0.006350 1.729396 -0.120432
v 0.090470 1.751960 -0.106687
v 0.057377 1.779205 -0.086612
v 0.086408 1.769605 -0.067089
v 0.059119 1.783997 -0.054740
v 0.078482 1.776610 -0.007639
v 0.055394 1.797826 -0.008560
v 0.025320 1.742849 -0.080072
v 0.078903 1.639856 -0.099844
v 0.078903 1.734878 -0.043748
v 0.039680 1.764776 -0.030551
v 0.009880 1.766782 0.031548
v 0.039819 1.797660 0.016437
v 0.057660 1.781034 0.034163
v 0.022758 1.799130 0.047076
v 0.035220 1.779672 0.063512
vn 0.0350 -0.4216 0.9061
vn 0.4531 -0.8546 0.2536
vn 0.5589 -0.8231 0.1007
vn -0.7941 -0.5807 -0.1797
vn -0.7502 -0.6578 0.0675
vn -0.8127 -0.5370 0.2264
vn -0.3425 0.3599 -0.8679
vn -0.7284 -0.5623 0.3914
vn 0.5846 -0.7652 -0.2698
vn 0.5297 -0.7738 -0.3474
vn -0.7430 -0.5061 0.4380
vn 0.1744 -0.5658 -0.8059
vn -0.5166 -0.4376 0.7359
vn -0.0350 -0.4216 0.9061
vn -0.4531 -0.8546 0.2536
vn -0.5589 -0.8231 0.1007
vn 0.7941 -0.5807 -0.1797
vn 0.7502 -0.6578 0.0675
vn 0.8127 -0.5370 0.2264
vn 0.3425 0.3599 -0.8679
vn 0.7284 -0.5623 0.3914
vn -0.5846 -0.7652 -0.2698
vn -0.5297 -0.7738 -0.3474
vn 0.7430 -0.5061 0.4380
vn -0.1744 -0.5658 -0.8059
vn 0.5166 -0.4376 0.7359
vt 0.000000 0.000000
vt 1.000000 0.000000
vt 1.000000 1.000000
vt 0.000000 1.000000
s 0
usemtl whiteShirt
f 461/322/428 462/323/428 464/324/428 463/325/428
f 463/325/429 464/324/429 466/324/429 465/325/429
f 465/325/430 466/324/430 468/324/430 467/325/430
f 464/324/431 462/323/431 469/322/431 470/322/431
f 466/324/432 464/324/432 470/322/432 474/322/432
f 468/324/433 466/324/433 474/322/433
f 474/322/435 475/322/435 476/322/435 468/324/435
f 467/325/436 468/324/436 476/322/436 477/322/436
f 477/322/437 476/322/437 479/322/437 480/322/437
f 476/322/438 475/322/438 479/322/438
f 480/322/439 479/322/439 481/322/439 482/322/439
f 478/322/440 481/322/440 479/322/440 475/322/440
f 483/322/441 485/325/441 486/324/441 484/323/441
f 485/325/442 487/325/442 488/324/442 486/324/442
f 487/325/443 489/325/443 490/324/443 488/324/443
f 486/324/444 491/322/444 469/322/444 484/323/444
f 488/324/445 494/322/445 491/322/445 486/324/445
f 490/324/446 494/322/446 488/324/446
f 494/322/448 490/324/448 496/322/448 495/322/448
f 489/325/449 497/322/449 496/322/449 490/324/449
f 497/322/450 499/322/450 498/322/450 496/322/450
f 496/322/451 498/322/451 495/322/451
f 499/322/452 482/322/452 481/322/452 498/322/452
f 478/322/453 495/322/453 498/322/453 481/322/453
usemtl shirtShadow
f 474/322/434 470/322/434 469/322/434 471/322/434 472/322/434 473/322/434
f 494/322/447 493/322/447 492/322/447 471/322/447 469/322/447 491/322/447
o shirt_bottom.001
v -0.021572 1.143520 -0.127310
v -0.021572 1.288450 -0.098635
v -0.015542 1.223397 -0.109404
v -0.017170 1.181006 -0.121926
v -0.054301 1.145973 -0.127310
v -0.054301 1.288450 -0.098635
v -0.051286 1.223397 -0.109404
v -0.052100 1.183459 -0.121926
v -0.054210 1.147223 -0.146543
v -0.021481 1.144770 -0.146543
v -0.015521 1.224690 -0.128632
v -0.021572 1.289897 -0.117839
v -0.017105 1.182204 -0.141166
v -0.054301 1.289897 -0.117839
v -0.051266 1.224694 -0.128631
v -0.052035 1.184655 -0.141167
v 0.021572 1.149758 -0.127310
v 0.021572 1.294688 -0.098635
v 0.015542 1.229635 -0.103532
v 0.017170 1.187244 -0.121926
v 0.054301 1.152211 -0.127310
v 0.054301 1.294688 -0.098635
v 0.051286 1.229635 -0.103532
v 0.052100 1.189697 -0.121926
v 0.054210 1.153461 -0.146543
v 0.021481 1.151008 -0.146543
v 0.015521 1.230928 -0.122760
v 0.021572 1.296135 -0.117839
v 0.017105 1.188442 -0.141166
v 0.054301 1.296135 -0.117839
v 0.051266 1.230932 -0.122759
v 0.052035 1.190893 -0.141167
v -0.152212 1.151433 -0.126329
v -0.145970 1.287255 -0.116209
v -0.146761 1.221115 -0.123091
v -0.086905 1.147554 -0.128270
v -0.087393 1.287340 -0.108952
v -0.087295 1.221957 -0.116258
v -0.206417 1.154053 -0.040027
v -0.150696 1.287120 -0.034623
v -0.159132 1.220539 -0.030664
v -0.175336 1.146379 0.136876
v -0.154103 1.280629 0.119420
v -0.153366 1.213152 0.109094
v 0.000136 1.147199 0.134910
v -0.000054 1.281882 0.117116
v 0.000056 1.214422 0.113428
v -0.171182 1.220318 0.051540
v -0.150718 1.286687 0.045386
v -0.195420 1.154092 0.054593
v -0.149587 1.185825 -0.124775
v -0.087040 1.184584 -0.124687
v -0.183061 1.186600 -0.035211
v -0.164647 1.178914 0.123149
v 0.000145 1.179713 0.124445
v -0.183580 1.186567 0.052859
v -0.054371 1.145010 -0.128278
v -0.054301 1.287340 -0.108945
v -0.051323 1.221770 -0.116283
v -0.052172 1.181920 -0.124718
v 0.152286 1.158111 -0.130274
v 0.146074 1.293678 -0.116093
v 0.146878 1.226963 -0.123129
v 0.087187 1.153801 -0.128270
v 0.087544 1.294031 -0.108918
v 0.087529 1.227930 -0.112347
v 0.196518 1.168156 -0.039839
v 0.150696 1.293358 -0.034623
v 0.159140 1.226745 -0.030678
v 0.175648 1.160040 0.136802
v 0.154038 1.294520 0.119475
v 0.153253 1.227140 0.109153
v 0.171180 1.226532 0.051648
v 0.150715 1.292933 0.045417
v 0.195404 1.167491 0.054901
v 0.149798 1.191942 -0.128792
v 0.087350 1.190327 -0.124771
v 0.182942 1.193081 -0.035239
v 0.164738 1.192639 0.123183
v 0.183549 1.192786 0.053124
v 0.054371 1.151248 -0.128278
v 0.054301 1.294181 -0.108896
v 0.051339 1.227829 -0.112352
v 0.052188 1.187698 -0.124801
v -0.157116 1.153930 -0.134678
v -0.152487 1.288450 -0.123699
v -0.152487 1.223397 -0.130965
v -0.087030 1.148425 -0.138231
v -0.087030 1.288450 -0.118884
v -0.087030 1.223397 -0.126150
v -0.215227 1.158344 -0.042020
v -0.160556 1.288450 -0.035631
v -0.168629 1.223397 -0.031945
v -0.180493 1.150692 0.144279
v -0.160556 1.280798 0.127057
v -0.159427 1.215745 0.116614
v 0.000000 1.150692 0.144279
v 0.000000 1.280798 0.127057
v 0.000000 1.215745 0.123340
v -0.180657 1.223397 0.052405
v -0.160556 1.288450 0.045713
v -0.204310 1.158344 0.056291
v -0.154802 1.188663 -0.132822
v -0.087030 1.185911 -0.134598
v -0.191928 1.190870 -0.036982
v -0.169960 1.183218 0.130446
v 0.000000 1.183218 0.133810
v -0.192484 1.190870 0.054348
v -0.054301 1.145973 -0.138231
v -0.054301 1.288450 -0.118884
v -0.051286 1.223397 -0.126150
v -0.052100 1.183459 -0.134598
v 0.157116 1.160168 -0.138785
v 0.152487 1.294688 -0.123699
v 0.152487 1.229635 -0.130965
v 0.087030 1.154663 -0.138231
v 0.087030 1.294688 -0.118884
v 0.087030 1.229635 -0.122188
v 0.205563 1.171820 -0.042020
v 0.160556 1.294688 -0.035631
v 0.168629 1.229635 -0.031945
v 0.180493 1.164582 0.144279
v 0.160556 1.294688 0.127057
v 0.159427 1.229635 0.116614
v 0.180657 1.229635 0.052405
v 0.160556 1.294688 0.045713
v 0.204310 1.171820 0.056291
v 0.154802 1.194901 -0.136929
v 0.087030 1.192149 -0.134598
v 0.191928 1.197108 -0.036982
v 0.169960 1.197108 0.130446
v 0.192484 1.197108 0.054348
v 0.054301 1.152211 -0.138231
v 0.054301 1.294688 -0.118884
v 0.051286 1.229635 -0.122188
v 0.052100 1.189697 -0.134598
vn 0.0746 0.9951 0.0650
vn 0.9983 -0.0584 0.0003
vn 0.9989 0.0458 0.0038
vn -0.0000 -0.1633 0.9866
vn -0.0101 -0.2904 0.9569
vn -0.0102 -0.1413 0.9899
vn 0.9998 -0.0201 0.0009
vn -0.9993 0.0378 0.0002
vn -0.0000 -0.9972 -0.0752
vn -0.9958 -0.0912 -0.0070
vn -0.9933 0.1159 0.0034
vn -0.0746 0.9951 0.0650
vn -0.9983 -0.0584 0.0003
vn -0.9989 0.0461 0.0038
vn -0.0000 -0.0753 0.9972
vn 0.0141 -0.4070 0.9133
vn 0.0102 -0.1413 0.9899
vn -0.9998 -0.0202 0.0009
vn 0.9993 0.0377 0.0002
vn 0.9958 -0.0918 -0.0071
vn 0.9933 0.1159 0.0034
vn 0.1170 0.1059 -0.9875
vn 0.0566 0.1357 -0.9891
vn -0.9927 0.0712 -0.0972
vn -0.9013 0.3688 -0.2274
vn -0.9825 0.1410 0.1219
vn -0.8793 0.3732 0.2960
vn -0.0057 -0.1033 0.9946
vn -0.0188 0.3444 0.9386
vn -0.8780 0.4743 -0.0641
vn -0.9758 0.2066 -0.0718
vn -0.8793 0.4736 0.0504
vn 0.0002 0.3485 0.9373
vn -0.8899 0.3714 0.2650
vn -0.8312 0.3627 -0.4214
vn -0.0116 0.0721 -0.9973
vn 0.0068 0.0960 -0.9954
vn 0.0078 0.2133 -0.9770
vn -0.0000 0.1111 -0.9938
vn -0.1493 0.0768 -0.9858
vn -0.1185 0.2357 -0.9646
vn 0.9928 0.0711 -0.0962
vn 0.8974 0.3820 -0.2209
vn 0.9841 0.1415 0.1069
vn 0.8930 0.3703 0.2558
vn 0.0147 -0.1034 0.9945
vn -0.0109 0.3387 0.9408
vn 0.8782 0.4741 -0.0637
vn 0.9758 0.2066 -0.0717
vn 0.8922 0.4515 0.0048
vn -0.0277 0.3427 0.9390
vn 0.8788 0.4103 0.2436
vn 0.8787 0.2802 -0.3866
vn -0.0503 0.0689 -0.9964
vn -0.0067 0.0950 -0.9955
vn -0.0112 0.3046 -0.9524
vn -0.0002 0.0519 -0.9987
vn -0.0729 -0.1107 0.9912
vn -0.0255 -0.1404 0.9898
vn 0.9896 -0.0649 0.1281
vn 0.8963 -0.3669 0.2492
vn 0.9779 -0.1381 -0.1571
vn 0.8723 -0.3757 -0.3130
vn 0.0209 0.1084 -0.9939
vn 0.0286 -0.3539 -0.9349
vn 0.8769 -0.4765 0.0628
vn 0.9760 -0.2057 0.0709
vn 0.8799 -0.4728 -0.0481
vn 0.0090 -0.3512 -0.9363
vn 0.8834 -0.3726 -0.2842
vn 0.8278 -0.3594 0.4308
vn 0.0339 -0.0768 0.9965
vn -0.0070 -0.0963 0.9953
vn -0.0074 -0.2131 0.9770
vn -0.0000 -0.1110 0.9938
vn 0.1029 -0.0805 0.9914
vn 0.0856 -0.2431 0.9662
vn -0.9896 -0.0649 0.1281
vn -0.8926 -0.3797 0.2432
vn -0.9800 -0.1388 -0.1429
vn -0.8863 -0.3717 -0.2764
vn -0.0303 0.1084 -0.9936
vn 0.0008 -0.3498 -0.9368
vn -0.8769 -0.4765 0.0628
vn -0.9760 -0.2057 0.0709
vn -0.8933 -0.4495 -0.0033
vn 0.0185 -0.3473 -0.9376
vn -0.8729 -0.4098 -0.2646
vn -0.8735 -0.2780 0.3996
vn 0.0253 -0.0750 0.9969
vn 0.0070 -0.0963 0.9953
vn 0.0106 -0.3052 0.9522
vn -0.0000 -0.0507 0.9987
vn 0.0139 -0.9906 -0.1359
vn 0.0747 0.9842 0.1605
vn -0.0000 -0.9938 -0.1110
vn -0.1463 -0.9892 -0.0118
vn 0.3305 0.9282 0.1709
vn -0.1607 -0.9829 -0.0902
vn 0.4348 0.8992 -0.0496
vn 0.0036 -0.9987 -0.0507
vn -0.0044 0.9061 -0.4231
vn -0.1550 -0.9879 -0.0027
vn 0.4962 0.8668 -0.0497
vn 0.0760 0.9929 0.0912
vn -0.9983 0.0590 0.0003
vn -0.9998 0.0213 -0.0021
vn -0.9990 -0.0449 -0.0081
vn -0.0124 -0.9951 -0.0985
vn -0.0691 0.9879 0.1386
vn -0.0023 -0.9983 -0.0582
vn 0.1360 -0.9906 -0.0121
vn -0.3407 0.9383 0.0599
vn 0.1130 -0.9936 0.0077
vn -0.4068 0.9135 -0.0018
vn 0.0843 -0.9929 -0.0836
vn -0.0659 0.9077 -0.4145
vn 0.1546 -0.9880 -0.0026
vn -0.5145 0.8555 -0.0580
vn -0.0758 0.9929 0.0918
vn 0.9983 0.0591 0.0009
vn 0.9998 0.0217 -0.0030
vn 0.9990 -0.0450 -0.0080
vt 0.000000 0.000000
vt 0.750000 0.250000
vt 0.750000 0.000000
vt 0.750000 1.000000
vt 0.750000 0.500000
vt 1.000000 0.500000
vt 1.000000 1.000000
vt 1.000000 0.250000
vt 1.000000 0.000000
vt 0.000000 0.500000
vt 0.000000 1.000000
vt 0.500000 1.000000
vt 0.500000 0.500000
vt 0.000000 0.250000
vt 0.500000 0.250000
vt 0.500000 0.000000
s 0
usemtl whiteShirt
f 504/326/454 500/326/454 509/326/454 508/326/454
f 507/327/455 504/328/455 508/328/455 515/327/455
f 505/329/456 506/330/456 514/330/456 513/329/456
f 514/330/457 510/331/457 511/332/457 513/329/457
f 515/327/458 512/333/458 510/331/458 514/330/458
f 508/328/459 509/334/459 512/333/459 515/327/459
f 506/330/460 507/327/460 515/327/460 514/330/460
f 503/326/461 502/326/461 510/326/461 512/326/461
f 501/326/462 505/326/462 513/326/462 511/326/462
f 502/326/463 501/326/463 511/326/463 510/326/463
f 500/326/464 503/326/464 512/326/464 509/326/464
f 523/327/466 531/327/466 524/328/466 520/328/466
f 521/329/467 529/329/467 530/330/467 522/330/467
f 530/330/468 529/329/468 527/332/468 526/331/468
f 531/327/469 530/330/469 526/331/469 528/333/469
f 524/328/470 531/327/470 528/333/470 525/334/470
f 522/330/471 530/330/471 531/327/471 523/327/471
f 519/326/472 528/326/472 526/326/472 518/326/472
f 517/326/462 527/326/462 529/326/462 521/326/462
f 518/326/473 526/326/473 527/326/473 517/326/473
f 516/326/474 525/326/474 528/326/474 519/326/474
f 534/335/475 533/336/475 536/337/475 537/338/475
f 534/335/477 540/335/477 539/336/477 533/336/477
f 547/335/479 543/335/479 542/336/479 548/336/479
f 543/335/481 546/335/481 545/336/481 542/336/481
f 540/335/484 547/335/484 548/336/484 539/336/484
f 537/338/492 536/337/492 557/329/492 558/330/492
f 562/335/493 565/338/493 564/337/493 561/336/493
f 562/335/495 561/336/495 567/336/495 568/335/495
f 572/335/497 573/336/497 570/336/497 571/335/497
f 571/335/499 570/336/499 545/336/499 546/335/499
f 568/335/502 567/336/502 573/336/502 572/335/502
f 565/338/510 582/330/510 581/329/510 564/337/510
f 586/335/511 589/338/511 588/337/511 585/336/511
f 586/335/513 585/336/513 591/336/513 592/335/513
f 599/335/515 600/336/515 594/336/515 595/335/515
f 595/335/517 594/336/517 597/336/517 598/335/517
f 592/335/520 591/336/520 600/336/520 599/335/520
f 589/338/528 610/330/528 609/329/528 588/337/528
f 614/335/529 613/336/529 616/337/529 617/338/529
f 614/335/531 620/335/531 619/336/531 613/336/531
f 624/335/533 623/335/533 622/336/533 625/336/533
f 623/335/535 598/335/535 597/336/535 622/336/535
f 620/335/538 624/335/538 625/336/538 619/336/538
f 617/338/546 616/337/546 633/329/546 634/330/546
usemtl shirtShadow2
f 520/326/465 524/326/465 525/326/465 516/326/465
f 602/339/512 603/340/512 589/338/512 586/335/512
f 602/339/514 586/335/514 592/335/514 604/339/514
f 607/339/516 599/335/516 595/335/516 605/339/516
f 605/339/518 595/335/518 598/335/518 606/339/518
f 604/339/519 592/335/519 599/335/519 607/339/519
f 603/340/527 611/327/527 610/330/527 589/338/527
f 627/339/530 614/335/530 617/338/530 628/340/530
f 627/339/532 629/339/532 620/335/532 614/335/532
f 631/339/534 630/339/534 623/335/534 624/335/534
f 630/339/536 606/339/536 598/335/536 623/335/536
f 629/339/537 631/339/537 624/335/537 620/335/537
f 628/340/545 617/338/545 634/330/545 635/327/545
f 533/336/547 585/336/547 588/337/547 536/337/547
f 535/341/548 587/341/548 584/326/548 532/326/548
f 536/337/549 588/337/549 609/329/549 557/329/549
f 539/336/550 591/336/550 585/336/550 533/336/550
f 532/326/551 584/326/551 590/326/551 538/326/551
f 542/336/552 594/336/552 600/336/552 548/336/552
f 538/326/553 590/326/553 601/326/553 549/326/553
f 545/336/554 597/336/554 594/336/554 542/336/554
f 541/326/555 593/326/555 596/326/555 544/326/555
f 548/336/556 600/336/556 591/336/556 539/336/556
f 549/326/557 601/326/557 593/326/557 541/326/557
f 556/328/558 608/328/558 587/341/558 535/341/558
f 557/329/561 609/329/561 610/330/561 558/330/561
f 564/337/562 616/337/562 613/336/562 561/336/562
f 560/326/563 612/326/563 615/341/563 563/341/563
f 581/329/564 633/329/564 616/337/564 564/337/564
f 561/336/565 613/336/565 619/336/565 567/336/565
f 566/326/566 618/326/566 612/326/566 560/326/566
f 573/336/567 625/336/567 622/336/567 570/336/567
f 574/326/568 626/326/568 618/326/568 566/326/568
f 570/336/569 622/336/569 597/336/569 545/336/569
f 544/326/570 596/326/570 621/326/570 569/326/570
f 567/336/571 619/336/571 625/336/571 573/336/571
f 569/326/572 621/326/572 626/326/572 574/326/572
f 563/341/573 615/341/573 632/328/573 580/328/573
f 582/330/576 634/330/576 633/329/576 581/329/576
usemtl shirtShadow
f 550/339/476 534/335/476 537/338/476 551/340/476
f 550/339/478 552/339/478 540/335/478 534/335/478
f 555/339/480 553/339/480 543/335/480 547/335/480
f 553/339/482 554/339/482 546/335/482 543/335/482
f 552/339/483 555/339/483 547/335/483 540/335/483
f 538/326/485 549/326/485 555/339/485 552/339/485
f 541/326/486 544/326/486 554/339/486 553/339/486
f 549/326/487 541/326/487 553/339/487 555/339/487
f 532/326/488 538/326/488 552/339/488 550/339/488
f 532/326/489 550/339/489 551/340/489 535/341/489
f 535/341/490 551/340/490 559/327/490 556/328/490
f 551/340/491 537/338/491 558/330/491 559/327/491
f 575/339/494 576/340/494 565/338/494 562/335/494
f 575/339/496 562/335/496 568/335/496 577/339/496
f 579/339/498 572/335/498 571/335/498 578/339/498
f 578/339/500 571/335/500 546/335/500 554/339/500
f 577/339/501 568/335/501 572/335/501 579/339/501
f 566/326/503 577/339/503 579/339/503 574/326/503
f 569/326/504 578/339/504 554/339/504 544/326/504
f 574/326/505 579/339/505 578/339/505 569/326/505
f 560/326/506 575/339/506 577/339/506 566/326/506
f 560/326/507 563/341/507 576/340/507 575/339/507
f 563/341/508 580/328/508 583/327/508 576/340/508
f 576/340/509 583/327/509 582/330/509 565/338/509
f 559/327/559 611/327/559 608/328/559 556/328/559
f 558/330/560 610/330/560 611/327/560 559/327/560
f 580/328/574 632/328/574 635/327/574 583/327/574
f 583/327/575 635/327/575 634/330/575 582/330/575
usemtl shirtShadow3
f 590/326/521 604/339/521 607/339/521 601/326/521
f 593/326/522 605/339/522 606/339/522 596/326/522
f 601/326/523 607/339/523 605/339/523 593/326/523
f 584/326/524 602/339/524 604/339/524 590/326/524
f 584/326/525 587/341/525 603/340/525 602/339/525
f 587/341/526 608/328/526 611/327/526 603/340/526
f 618/326/539 626/326/539 631/339/539 629/339/539
f 621/326/540 596/326/540 606/339/540 630/339/540
f 626/326/541 621/326/541 630/339/541 631/339/541
f 612/326/542 618/326/542 629/339/542 627/339/542
f 612/326/543 627/339/543 628/340/543 615/341/543
f 615/341/544 628/340/544 635/327/544 632/328/544
